<svg width="289" height="406" viewBox="0 0 289 406" fill="none" xmlns="http://www.w3.org/2000/svg">
<path d="M84.8958 147.187C83.2452 148.295 37.3578 167.875 32.2726 172.111C27.1873 176.348 24.525 182.873 25.8102 185.529C36.1885 186.149 80.1709 161.348 83.7803 156.709C87.4742 152.129 84.8958 147.187 84.8958 147.187Z" fill="#FFD0CA"/>
<path d="M207.865 48.4437C207.865 48.4437 212.187 51.2252 217.332 55.3461C222.476 59.3639 225.152 62.7636 225.152 62.7636C225.152 62.7636 233.178 56.9944 244.702 44.7349C251.185 37.8325 242.644 30.5181 234.515 31.0332C221.036 31.9604 207.865 48.4437 207.865 48.4437Z" fill="#9FC8D5"/>
<path d="M218.463 238.208C222.476 234.293 225.563 230.997 225.563 230.997L243.982 230.172V236.251C243.982 236.251 243.467 238.826 240.586 240.578C237.705 242.432 232.046 245.523 229.062 246.656C224.74 248.201 217.023 249.849 213.627 249.953C209.717 250.056 208.071 248.304 210.129 246.244C213.524 242.947 214.656 241.814 218.463 238.208Z" fill="#305F6D"/>
<path d="M261.269 241.196L277.938 239.341C277.938 239.341 280.305 249.953 276.394 260.873C272.484 271.793 265.693 271.896 263.224 271.072C260.857 270.248 259.725 263.242 260.137 255.413C260.548 247.377 261.269 241.196 261.269 241.196Z" fill="#305F6D"/>
<path d="M239.557 96.0393C231.943 98.3058 224.843 101.087 224.843 101.087C224.843 101.087 220.007 136.939 218.463 158.573C216.817 183.092 222.271 231.409 222.271 231.409C222.271 231.409 223.094 236.663 232.149 235.941C239.043 235.323 244.29 229.245 244.29 229.245L240.483 173.511L248.406 138.999C247.274 119.219 241.101 115.613 239.557 96.0393Z" fill="url(#paint0_linear)"/>
<path d="M284.42 235.014C284.42 235.014 279.687 199.369 269.398 176.086C268.574 158.367 275.16 138.175 271.147 120.661C266.105 98.8208 258.285 99.3359 258.285 99.3359C258.799 95.6271 250.67 96.2453 242.336 97.8936C242.336 112.523 242.439 127.254 242.336 141.883L242.541 141.059C242.541 141.059 243.776 170.214 248.201 186.079C254.169 206.993 258.285 243.462 258.285 243.462C258.285 243.462 270.015 247.686 278.041 243.668C285.964 239.547 284.42 235.014 284.42 235.014Z" fill="url(#paint1_linear)"/>
<path d="M236.779 37.6267C238.322 38.2448 239.146 39.7901 239.146 39.7901L257.667 40.0992C257.667 40.0992 272.69 43.1898 276.188 54.8312C276.497 58.4369 275.983 66.9876 275.468 70.7994C274.954 71.1084 271.455 70.5933 271.147 71.3145C266.413 85.0162 267.031 101.706 268.06 115.51C266.31 119.013 230.296 119.013 223.094 114.995C226.901 88.2099 215.376 57.0976 236.779 37.6267Z" fill="#B7DBE6"/>
<path d="M239.66 58.7459C242.13 56.7885 243.056 52.9767 243.056 52.9767C243.056 52.9767 242.233 52.7707 240.895 52.2555C238.837 51.5344 237.705 51.2253 237.705 51.2253C237.705 51.2253 236.265 55.5522 236.779 57.3036C235.236 60.2912 231.531 69.357 231.531 69.357L235.236 78.1137L241.924 70.3872C241.924 70.3872 241.718 69.8721 241.101 67.9147C240.689 66.5754 239.969 61.2183 239.66 58.7459Z" fill="url(#paint2_linear)"/>
<path d="M222.991 64.7211C225.357 43.6018 236.059 34.1239 236.059 34.1239L241.101 37.1115C241.101 37.1115 235.133 50.2982 234.515 56.2734C233.589 66.2664 236.264 75.4352 236.264 75.4352C236.264 75.4352 243.364 56.8915 250.979 49.0619C258.079 41.8505 259.416 39.9961 259.416 39.9961L266.31 43.6018C266.31 43.6018 256.947 57.2005 258.284 72.4476C259.416 85.6343 268.368 85.8403 268.368 85.8403L272.999 122.104C272.999 122.104 261.783 129.624 252.522 130.242C250.053 130.448 241.512 130.448 238.734 130.036C238.734 126.534 236.676 119.116 236.676 119.116C236.676 119.116 234.207 124.988 234.207 128.903C223.917 127.049 220.418 119.116 220.418 119.116C220.418 119.116 222.991 101.602 222.991 92.1246C222.991 77.4956 222.579 68.6358 222.991 64.7211Z" fill="url(#paint3_linear)"/>
<path d="M241.204 37.2144L255.198 27.0154L258.182 43.4987C258.182 43.4987 255.3 46.8984 251.082 49.1648C247.583 51.0192 243.364 51.8434 239.454 52.9766C237.808 50.092 239.454 46.8984 239.454 46.8984L241.204 37.2144Z" fill="#FCB9B4"/>
<path d="M256.844 8.78046C259.931 12.6952 260.96 22.6883 256.639 29.6937C252.831 35.8749 244.188 39.3776 240.381 39.9957C233.487 41.129 226.078 22.0701 233.898 10.5318C241.41 -0.594428 252.831 3.73244 256.844 8.78046Z" fill="#FFD0CA"/>
<path d="M250.259 0.436014C254.169 1.05414 257.153 3.52664 259.314 6.41122C266.311 7.85351 265.59 17.9495 263.841 21.8643C260.445 29.2818 256.638 29.6939 256.638 29.6939C256.638 29.6939 257.667 25.6761 256.741 23.9247C256.021 22.3794 253.551 22.1734 252.831 24.8519C251.905 25.161 250.876 25.058 250.876 25.058L251.699 19.7009C251.699 19.7009 247.686 21.7613 243.056 19.0828C238.837 16.6103 234.618 18.0526 233.178 19.4948C232.252 17.2284 232.354 15.8891 232.457 14.0348C229.782 12.0774 227.107 10.429 227.518 9.08976C229.576 9.70788 232.046 9.70788 234.001 8.47163C232.252 7.13236 231.428 5.89611 230.399 4.45382C235.338 5.07195 245.628 -0.388152 250.259 0.436014Z" fill="#305F6D"/>
<path d="M240.689 39.7901C239.763 45.0441 239.455 52.9767 239.455 52.9767L231.429 48.4438L235.956 38.3478C236.471 38.7599 238.734 40.5112 240.689 39.7901Z" fill="#9FC8D5"/>
<path d="M256.741 35.7722C256.741 35.7722 259.211 38.6568 259.519 40.0991C260.343 44.529 256.227 50.5042 252.625 55.1401C248.921 53.1827 239.455 52.9767 239.455 52.9767C239.455 52.9767 244.805 47.8256 247.892 45.3531C255.198 39.584 256.741 35.7722 256.741 35.7722Z" fill="#9FC8D5"/>
<path d="M202.526 216.66L180.608 203.988C180.506 203.885 180.403 203.885 180.3 203.782C179.065 202.855 178.551 200.898 178.551 198.631C178.551 198.322 178.551 198.013 178.551 197.498V197.395V197.292C178.653 193.892 179.271 191.42 179.991 188.535C180.3 187.093 180.711 185.445 181.02 183.796L185.753 181.015L185.959 180.912L186.062 180.809L189.766 178.851L189.869 178.748C191.207 178.13 192.442 177.615 193.471 177.203L193.573 177.1C193.779 176.997 193.882 176.997 194.088 176.997C194.294 176.894 194.5 176.894 194.705 176.894H194.808C195.014 176.791 195.323 176.791 195.529 176.688C195.734 176.688 195.94 176.585 196.146 176.585C196.352 176.585 196.66 176.585 196.866 176.482C197.072 176.482 197.278 176.482 197.381 176.482C197.586 176.482 197.792 176.482 198.101 176.585H198.204C198.307 176.585 198.41 176.585 198.513 176.688C198.821 176.791 199.027 176.894 199.336 176.997C199.439 176.997 199.542 177.1 199.542 177.1C200.262 177.512 200.879 178.027 201.394 178.748C201.394 178.748 201.497 178.851 201.497 178.954C201.702 179.263 201.908 179.676 202.114 179.985C202.114 180.088 202.217 180.088 202.217 180.191V180.294C202.32 180.706 202.526 181.118 202.628 181.53L202.731 181.839C202.834 182.354 202.937 182.869 203.04 183.384V183.59C203.246 184.93 203.349 186.372 203.349 188.02C203.349 193.583 202.32 197.704 201.497 201.31C200.776 204.194 200.159 206.667 200.056 210.067V210.17V210.273C200.056 210.788 199.953 211.097 200.056 211.406C200.056 213.672 200.776 215.424 201.908 216.351C202.32 216.454 202.423 216.557 202.526 216.66Z" fill="url(#paint4_linear)"/>
<path d="M168.158 191.317L146.344 178.543V170.507V162.471V154.951C146.344 150.521 146.55 147.121 146.961 144.546C147.682 140.322 148.916 139.086 152.209 137.128C155.09 135.48 156.84 135.274 158.897 135.171C159.721 135.068 160.441 135.068 161.161 134.965C161.367 134.965 161.573 134.862 161.779 134.862C162.087 134.759 162.499 134.759 162.808 134.656C163.219 134.553 163.631 134.45 164.145 134.244C164.351 134.141 164.557 134.141 164.763 134.038C165.483 133.728 166.203 133.419 166.923 133.11C166.923 133.11 167.026 133.11 167.026 133.007C167.541 132.801 167.952 132.595 168.364 132.389C172.377 130.02 176.184 125.487 178.757 119.821C178.962 119.409 179.065 119.1 179.271 118.687C179.065 118.894 178.859 119.1 178.757 119.203C179.477 118.481 180.094 117.76 180.815 117.039C182.872 114.773 185.239 112.197 188.84 109.931C189.252 109.622 189.664 109.313 190.178 109.107C197.587 104.78 203.761 109.416 203.761 119.306C203.761 123.529 202.629 128.268 200.674 132.595C198.101 138.261 194.294 142.897 190.281 145.267C189.869 145.473 189.458 145.679 188.943 145.885H188.84C188.12 146.297 187.4 146.606 186.68 146.915L186.062 147.121C185.548 147.327 185.136 147.43 184.725 147.533C184.416 147.636 184.004 147.739 183.696 147.739C183.49 147.739 183.284 147.842 183.078 147.842C182.358 147.945 181.638 148.048 180.815 148.048C178.859 148.151 177.11 148.357 174.229 150.006C170.936 151.963 169.805 153.199 168.981 157.423C168.57 159.896 168.261 163.295 168.261 167.828V175.349V183.384L168.158 191.317Z" fill="url(#paint5_linear)"/>
<path d="M170.113 123.838L148.196 111.167C146.961 110.343 146.344 107.149 146.344 98.9074L146.241 75.4187L168.158 88.0903V111.682C168.158 119.924 168.775 123.117 170.113 123.838Z" fill="url(#paint6_linear)"/>
<path opacity="0.2" d="M202.526 216.66L180.608 203.988C180.506 203.885 180.403 203.885 180.3 203.782C179.065 202.855 178.551 200.898 178.551 198.631C178.551 198.322 178.551 198.013 178.551 197.498V197.395V197.292C178.653 193.892 179.271 191.42 179.991 188.535C180.3 187.093 180.711 185.445 181.02 183.796L185.753 181.015L185.959 180.912L186.062 180.809L189.766 178.851L189.869 178.748C191.207 178.13 192.442 177.615 193.471 177.203L193.573 177.1C193.779 176.997 193.882 176.997 194.088 176.997C194.294 176.894 194.5 176.894 194.705 176.894H194.808C195.014 176.791 195.323 176.791 195.529 176.688C195.734 176.688 195.94 176.585 196.146 176.585C196.352 176.585 196.66 176.585 196.866 176.482C197.072 176.482 197.278 176.482 197.381 176.482C197.586 176.482 197.792 176.482 198.101 176.585H198.204C198.307 176.585 198.41 176.585 198.513 176.688C198.821 176.791 199.027 176.894 199.336 176.997C199.439 176.997 199.542 177.1 199.542 177.1C200.262 177.512 200.879 178.027 201.394 178.748C201.394 178.748 201.497 178.851 201.497 178.954C201.702 179.263 201.908 179.676 202.114 179.985C202.114 180.088 202.217 180.088 202.217 180.191V180.294C202.32 180.706 202.526 181.118 202.628 181.53L202.731 181.839C202.834 182.354 202.937 182.869 203.04 183.384V183.59C203.246 184.93 203.349 186.372 203.349 188.02C203.349 193.583 202.32 197.704 201.497 201.31C200.776 204.194 200.159 206.667 200.056 210.067V210.17V210.273C200.056 210.788 199.953 211.097 200.056 211.406C200.056 213.672 200.776 215.424 201.908 216.351C202.32 216.454 202.423 216.557 202.526 216.66Z" fill="black"/>
<path d="M168.158 191.317L146.344 178.543V170.507V162.471V154.951C146.344 150.521 146.55 147.121 146.961 144.546C147.682 140.322 148.916 139.086 152.209 137.128C155.09 135.48 156.84 135.274 158.897 135.171C159.721 135.068 160.441 135.068 161.161 134.965C161.367 134.965 161.573 134.862 161.779 134.862C162.087 134.759 162.499 134.759 162.808 134.656C163.219 134.553 163.631 134.45 164.145 134.244C164.351 134.141 164.557 134.141 164.763 134.038C165.483 133.728 166.203 133.419 166.923 133.11C166.923 133.11 167.026 133.11 167.026 133.007C167.541 132.801 167.952 132.595 168.364 132.389C172.377 130.02 176.184 125.487 178.757 119.821C178.962 119.409 179.065 119.1 179.271 118.687C179.065 118.894 178.859 119.1 178.757 119.203C179.477 118.481 180.094 117.76 180.815 117.039C182.872 114.773 185.239 112.197 188.84 109.931C189.252 109.622 189.664 109.313 190.178 109.107C197.587 104.78 203.761 109.416 203.761 119.306C203.761 123.529 202.629 128.268 200.674 132.595C198.101 138.261 194.294 142.897 190.281 145.267C189.869 145.473 189.458 145.679 188.943 145.885H188.84C188.12 146.297 187.4 146.606 186.68 146.915L186.062 147.121C185.548 147.327 185.136 147.43 184.725 147.533C184.416 147.636 184.004 147.739 183.696 147.739C183.49 147.739 183.284 147.842 183.078 147.842C182.358 147.945 181.638 148.048 180.815 148.048C178.859 148.151 177.11 148.357 174.229 150.006C170.936 151.963 169.805 153.199 168.981 157.423C168.57 159.896 168.261 163.295 168.261 167.828V175.349V183.384L168.158 191.317Z" fill="#1E8FB1"/>
<path opacity="0.2" d="M170.113 123.838L148.196 111.167C146.961 110.343 146.344 107.149 146.344 98.9074L146.241 75.4187L168.158 88.0903V111.682C168.158 119.924 168.775 123.117 170.113 123.838Z" fill="black"/>
<path d="M202.731 216.763L202.526 216.66C202.423 216.557 202.32 216.557 202.217 216.454C200.982 215.527 200.365 213.776 200.365 211.509C200.365 211.2 200.365 210.891 200.365 210.376V210.273V210.17C200.468 206.77 201.085 204.298 201.805 201.413C202.629 197.807 203.658 193.79 203.658 188.124C203.658 186.475 203.555 185.033 203.349 183.694V183.488C203.246 182.972 203.143 182.457 203.04 181.942L202.937 181.633C202.834 181.221 202.629 180.809 202.526 180.397V180.294C202.526 180.191 202.423 180.191 202.423 180.088C202.217 179.676 202.011 179.367 201.805 179.058C201.805 178.955 201.703 178.955 201.703 178.852C201.188 178.13 200.571 177.615 199.85 177.203C199.747 177.203 199.747 177.1 199.645 177.1C199.336 176.997 199.027 176.894 198.821 176.791C198.718 176.791 198.616 176.791 198.513 176.688H198.41C198.101 176.688 197.895 176.585 197.69 176.585C197.484 176.585 197.381 176.585 197.175 176.585C196.969 176.585 196.661 176.585 196.455 176.688C196.249 176.688 196.043 176.688 195.837 176.791C195.632 176.791 195.323 176.894 195.117 176.997H195.014C194.808 176.997 194.603 177.1 194.397 177.1C194.191 177.1 194.088 177.203 193.882 177.203L193.779 177.306C192.648 177.615 191.516 178.13 190.178 178.852L190.075 178.955L186.371 180.912L186.268 181.015L186.062 181.118L181.329 183.9L168.364 191.42V183.385V175.349V167.828C168.364 163.399 168.57 159.999 169.084 157.423C169.804 153.199 171.039 151.963 174.332 150.006C177.213 148.357 178.962 148.151 180.917 148.048C181.741 147.945 182.461 147.945 183.181 147.842C183.387 147.842 183.593 147.739 183.798 147.739C184.107 147.636 184.519 147.636 184.827 147.533C185.239 147.43 185.651 147.327 186.165 147.121L186.782 146.915C187.503 146.606 188.223 146.297 188.943 145.885H189.046C189.561 145.679 189.972 145.473 190.384 145.267C194.397 142.897 198.204 138.364 200.776 132.595C202.731 128.268 203.863 123.53 203.863 119.306C203.863 109.313 197.792 104.78 190.281 109.107C189.766 109.313 189.355 109.622 188.943 109.931C185.342 112.3 182.975 114.773 180.917 117.039C180.197 117.76 179.58 118.585 178.859 119.203C177.83 120.233 176.699 121.263 175.258 122.087C175.052 122.19 174.949 122.293 174.744 122.396C174.538 122.499 174.435 122.602 174.229 122.705C173.612 123.014 173.097 123.426 172.48 123.633C172.274 123.736 172.171 123.736 171.965 123.839C171.76 123.942 171.657 123.942 171.451 123.942C171.348 123.942 171.142 124.045 171.039 124.045C170.731 124.045 170.525 123.942 170.216 123.839C168.878 123.117 168.261 120.027 168.261 111.682V88.0904L146.241 75.4188L213.536 36.477C213.741 36.374 214.05 36.1679 214.256 36.0649C214.462 35.9619 214.668 35.8589 214.976 35.7558C215.182 35.6528 215.388 35.6528 215.696 35.5498C215.902 35.4468 216.108 35.4468 216.314 35.4468C216.623 35.3438 216.931 35.3438 217.137 35.3438C218.269 35.3438 219.401 35.6528 220.327 36.1679L241.832 48.6334C242.45 48.9425 243.067 49.4576 243.582 50.0757C243.787 50.2818 243.89 50.4878 243.993 50.6938C244.096 50.7969 244.199 51.0029 244.302 51.2089C244.508 51.518 244.611 51.8271 244.713 52.2392C244.816 52.4452 244.816 52.6512 244.919 52.8573C245.228 53.9905 245.434 55.4328 245.434 56.8751V146.606L227.735 156.805C227.633 156.908 227.53 156.908 227.427 157.011L227.221 157.114L223.722 159.278C222.179 160.308 220.944 161.235 219.709 162.265L219.607 162.368C219.504 162.471 219.504 162.471 219.401 162.574C219.092 162.883 218.783 163.089 218.475 163.399L218.372 163.502C218.269 163.605 218.063 163.708 217.96 163.914C217.652 164.223 217.446 164.429 217.137 164.738C216.931 164.944 216.828 165.15 216.623 165.253C216.417 165.562 216.108 165.768 215.902 166.077C215.696 166.283 215.594 166.489 215.388 166.695C215.182 167.004 214.976 167.313 214.668 167.622C214.565 167.828 214.462 168.034 214.256 168.137L214.153 168.241L214.05 168.344C213.844 168.55 213.741 168.859 213.536 169.168C213.433 169.374 213.33 169.58 213.227 169.786L213.124 169.992C212.815 170.61 212.507 171.228 212.198 171.846L212.095 172.052C211.992 172.361 211.889 172.567 211.786 172.876C211.684 173.186 211.581 173.392 211.478 173.701L211.375 173.907C211.272 174.216 211.169 174.525 211.066 174.834C210.963 175.143 210.86 175.555 210.757 175.864C210.655 176.173 210.552 176.585 210.449 176.894C210.346 177.203 210.346 177.615 210.243 177.924C210.14 178.337 210.14 178.646 210.037 179.058V179.161C209.934 179.47 209.934 179.779 209.934 180.088C209.934 180.5 209.831 180.912 209.831 181.324V181.53C209.831 181.736 209.831 182.045 209.728 182.251C209.728 182.766 209.728 183.282 209.626 184.003V184.106C209.626 184.209 209.626 184.312 209.626 184.518C209.626 190.081 210.655 193.069 211.478 195.644C212.198 197.704 212.815 199.559 212.918 202.959V203.062V203.165C212.918 203.474 213.021 203.783 213.021 204.092C213.021 208.831 210.14 214.394 206.539 216.454C205.818 216.866 205.098 217.175 204.378 217.175C204.172 217.175 204.069 217.175 203.966 217.175H203.863C203.76 217.175 203.658 217.175 203.555 217.175C203.452 217.175 203.349 217.175 203.349 217.175C203.246 217.175 203.246 217.175 203.143 217.175C203.04 217.175 202.937 217.175 202.937 217.072C202.834 217.072 202.834 217.072 202.731 216.969C202.834 216.763 202.834 216.763 202.731 216.763Z" fill="url(#paint7_linear)"/>
<path opacity="0.3" d="M168.158 88.0904L146.241 75.4188L213.536 36.477C213.741 36.374 214.05 36.1679 214.256 36.0649C214.462 35.9619 214.667 35.8589 214.976 35.7558C215.182 35.6528 215.388 35.6528 215.696 35.5498C215.902 35.4468 216.108 35.4468 216.314 35.4468C216.623 35.3438 216.931 35.3438 217.137 35.3438C218.269 35.3438 219.401 35.6528 220.327 36.1679L241.729 48.5304C241.524 48.4274 241.318 48.3244 241.112 48.3244H241.009C240.803 48.2213 240.598 48.2213 240.392 48.2213C240.289 48.2213 240.289 48.2213 240.186 48.2213C240.083 48.2213 239.98 48.2213 239.774 48.2213C239.671 48.2213 239.569 48.2213 239.363 48.2213H239.26C239.054 48.2213 238.848 48.2213 238.745 48.2213C238.642 48.2213 238.437 48.2213 238.334 48.3244C238.025 48.3244 237.819 48.4274 237.511 48.5304C237.408 48.5304 237.202 48.6334 237.099 48.6334C236.893 48.7364 236.585 48.8395 236.276 48.9425C235.967 49.0455 235.658 49.2515 235.35 49.4576L168.158 88.0904Z" fill="white"/>
<path d="M86.9724 347.393L66.5988 335.649C64.438 334.413 63.3061 331.219 63.3061 327.201L63.2032 237.676L83.7826 249.524L83.6797 339.358C83.6797 343.273 84.9145 346.054 86.9724 347.393Z" fill="url(#paint8_linear)"/>
<path opacity="0.2" d="M86.9724 347.393L66.5988 335.649C64.438 334.413 63.3061 331.219 63.3061 327.201L63.2032 237.676L83.7826 249.524L83.6797 339.358C83.6797 343.273 84.9145 346.054 86.9724 347.393Z" fill="black"/>
<path d="M87.1779 347.497L87.075 347.394C85.0171 346.054 83.7823 343.273 83.7823 339.358L83.8852 249.524L63.3058 237.677L81.107 227.271L81.3128 227.168L83.7823 225.726L86.6634 223.769C86.6634 223.769 86.7663 223.769 86.7663 223.666L86.8692 223.563C87.075 223.46 87.1779 223.357 87.2808 223.254L87.4866 223.151C87.6924 223.048 87.7953 222.945 88.0011 222.739C88.2069 222.635 88.3098 222.532 88.5156 222.326C88.6185 222.223 88.8243 222.12 88.9272 222.017L89.133 221.914L89.2359 221.811C89.5446 221.605 89.7504 221.399 89.9561 221.193C90.059 221.09 90.2648 220.987 90.3677 220.781L90.4706 220.678C90.9851 220.266 91.3967 219.751 91.9112 219.236L92.117 219.03C92.3228 218.824 92.4257 218.618 92.6315 218.412C92.7344 218.309 92.8373 218.206 92.8373 218.103C92.9402 218 93.0431 217.897 93.0431 217.794L93.146 217.691L93.2488 217.587L93.3517 217.484C93.5575 217.278 93.7633 217.072 93.8662 216.763C93.9691 216.557 94.1749 216.351 94.2778 216.145L94.3807 216.042V215.939C94.5865 215.63 94.7923 215.424 94.8952 215.115C95.101 214.909 95.2039 214.6 95.3068 214.394L95.4097 214.291C95.5126 214.085 95.6155 213.879 95.7184 213.673C95.8213 213.57 95.8213 213.467 95.9242 213.364C96.0271 213.055 96.2329 212.849 96.3358 212.539C96.4386 212.333 96.5415 212.23 96.5415 212.024C96.6444 211.818 96.7473 211.715 96.7473 211.509C96.8502 211.406 96.8502 211.2 96.9531 211.097C97.056 210.994 97.056 210.788 97.1589 210.685C97.2618 210.273 97.3647 209.964 97.5705 209.552C97.6734 209.243 97.7763 208.934 97.8792 208.625V208.522C97.9821 208.213 98.085 207.801 98.085 207.491V207.388C98.1879 207.079 98.1879 206.873 98.2908 206.564C98.3937 206.152 98.4966 205.74 98.4966 205.328V205.122C98.4966 205.019 98.4966 204.916 98.4966 204.813V204.71C98.4966 204.607 98.4966 204.504 98.4966 204.401C98.5995 203.886 98.5995 203.371 98.5995 202.959V202.752C98.5995 202.546 98.5995 202.34 98.5995 202.134C98.5995 201.413 98.7024 200.589 98.7024 199.868V199.765C98.7024 199.559 98.7024 199.353 98.7024 199.147V198.941V198.632C98.7024 198.426 98.7024 198.117 98.7024 197.911C98.7024 197.807 98.7024 197.807 98.7024 197.704C98.7024 197.601 98.7024 197.601 98.7024 197.498V197.292V197.189C98.7024 196.777 98.7024 196.468 98.5995 196.056V195.953C98.5995 195.644 98.4966 195.335 98.4966 195.026C98.2908 193.378 97.9821 192.038 97.6734 190.905C97.4676 190.081 97.1589 189.36 96.9531 188.639C96.4386 187.093 95.9242 185.651 95.7184 183.694C95.7184 183.385 95.6155 182.973 95.6155 182.663C95.6155 182.251 95.5126 181.839 95.5126 181.427V181.324V181.221C95.5126 181.118 95.5126 181.015 95.5126 180.912C95.5126 180.706 95.5126 180.5 95.5126 180.294C95.5126 175.555 98.3937 169.992 101.995 167.931C102.407 167.725 102.715 167.519 103.127 167.416C103.436 167.313 103.641 167.313 103.95 167.313C104.259 167.313 104.465 167.313 104.67 167.313C104.773 167.313 104.876 167.313 105.082 167.416C105.391 167.519 105.802 167.622 106.111 167.828L126.587 179.676C126.69 179.779 126.793 179.779 126.896 179.882C128.131 180.809 128.748 182.56 128.748 184.827C128.748 185.136 128.748 185.445 128.645 185.96V186.063V186.166C128.542 189.566 127.925 192.038 127.205 194.923C126.999 195.644 126.896 196.365 126.69 197.189C126.587 197.498 126.587 197.704 126.485 198.014C126.279 198.838 126.176 199.662 125.97 200.486C125.97 200.795 125.867 201.104 125.867 201.31L140.376 193.172L160.955 205.019V217.278V223.151V228.714C160.955 235.307 160.441 239.737 159.412 242.209C158.691 243.961 157.559 244.991 155.09 246.433C152.209 248.082 150.46 248.288 148.504 248.391C147.784 248.494 147.064 248.494 146.344 248.597C146.035 248.597 145.829 248.7 145.52 248.7C145.212 248.803 145.006 248.803 144.697 248.906C144.183 249.009 143.668 249.215 143.154 249.318L142.742 249.421C142.022 249.73 141.199 250.039 140.479 250.451C140.376 250.451 140.273 250.554 140.17 250.554H140.067L139.964 250.657C139.655 250.76 139.347 250.966 139.038 251.172C136.363 252.718 133.687 255.293 131.424 258.693C130.395 260.238 129.469 261.886 128.748 263.535C128.028 265.08 127.411 266.831 126.896 268.377C127.308 267.965 127.616 267.553 128.028 267.14C129.263 265.801 130.292 264.771 131.424 263.741C132.453 262.814 133.482 262.092 134.613 261.474C136.26 260.547 137.597 259.723 138.523 260.341L158.897 272.498C159 272.498 159.103 272.601 159.103 272.704C159.206 272.704 159.206 272.807 159.309 272.91C159.309 272.91 159.412 272.91 159.412 273.013C159.514 273.116 159.514 273.116 159.514 273.219C159.514 273.219 159.514 273.219 159.514 273.322C159.617 273.425 159.617 273.528 159.72 273.631C160.235 274.764 160.543 276.721 160.749 280.018C160.749 280.43 160.749 280.739 160.749 281.151C160.749 282.181 160.749 283.315 160.749 284.654V308.246L93.5575 347.085C92.3228 347.806 91.088 348.218 89.9561 348.321C89.5446 348.321 89.133 348.321 88.7214 348.321C88.6185 348.321 88.4127 348.321 88.3098 348.218C88.104 347.909 87.5895 347.703 87.1779 347.497Z" fill="url(#paint9_linear)"/>
<path opacity="0.1" d="M138.73 260.238L159.103 272.394C158.177 271.776 156.84 272.6 155.193 273.528C154.061 274.146 153.032 274.97 152.003 275.794C150.769 276.824 149.843 277.854 148.608 279.194C146.55 281.46 144.183 284.036 140.582 286.302C140.17 286.611 139.656 286.92 139.244 287.126C131.733 291.453 125.662 286.817 125.662 276.927C125.662 274.146 126.176 271.158 127.102 268.171C127.514 267.758 127.823 267.346 128.234 267.037C129.469 265.698 130.498 264.668 131.63 263.638C132.659 262.71 133.688 261.989 134.82 261.371C136.363 260.444 137.701 259.62 138.73 260.238Z" fill="black"/>
<path d="M125.97 201.207L140.479 193.069L161.058 204.916L143.36 215.115L138.009 217.897H137.906H137.803C137.701 218 137.598 218 137.392 218.103L137.186 218.206C136.877 218.309 136.569 218.412 136.26 218.515C136.054 218.618 135.951 218.618 135.746 218.721L135.643 218.824C135.334 218.927 135.128 219.03 134.819 219.133C134.614 219.236 134.408 219.236 134.202 219.236C133.893 219.339 133.585 219.339 133.379 219.442H133.276C133.173 219.442 132.967 219.442 132.864 219.545C132.556 219.545 132.144 219.648 131.835 219.648C131.733 219.648 131.63 219.648 131.63 219.648C131.218 219.648 130.806 219.648 130.395 219.545C130.292 219.545 130.292 219.545 130.189 219.545C129.88 219.442 129.572 219.339 129.263 219.236C129.16 219.236 129.057 219.133 129.057 219.133C128.851 219.03 128.543 218.824 128.337 218.618C128.234 218.618 128.234 218.515 128.131 218.515C127.822 218.309 127.617 218 127.411 217.691L127.308 217.588C126.793 216.866 126.382 215.939 126.073 214.806C126.073 214.703 126.073 214.703 126.073 214.6C125.97 214.085 125.867 213.57 125.765 212.952V212.643C125.662 212.024 125.559 211.406 125.559 210.685C125.456 209.758 125.456 209.037 125.456 208.213C125.456 205.534 125.662 203.268 125.97 201.207Z" fill="#1E8FB1"/>
<path opacity="0.1" d="M83.7829 249.421L63.2035 237.573L81.0046 227.168L81.1075 227.065H81.2104L83.68 225.623L86.5611 223.666L86.664 223.563L86.7669 223.46C86.9727 223.356 87.0756 223.253 87.1785 223.15L87.2814 223.047C87.4872 222.944 87.5901 222.841 87.7958 222.635C88.0016 222.532 88.1045 222.429 88.3103 222.223C88.4132 222.12 88.619 222.017 88.7219 221.914L88.9277 221.811L89.0306 221.708C89.3393 221.502 89.5451 221.296 89.7509 221.09C89.8538 220.987 90.0596 220.884 90.1625 220.678L90.2654 220.575C90.7798 220.163 91.1914 219.648 91.7059 219.133L91.9117 218.927C92.1175 218.721 92.2204 218.515 92.4262 218.308C92.5291 218.205 92.632 218.102 92.632 217.999C92.7349 217.896 92.7349 217.793 92.8378 217.69L92.9407 217.587L93.0436 217.484L93.1465 217.381C93.3523 217.175 93.5581 216.969 93.661 216.66C93.7639 216.454 93.9697 216.248 94.0726 216.042L94.1754 215.939V215.836C94.3812 215.527 94.587 215.321 94.6899 215.012C94.8957 214.806 94.9986 214.497 95.1015 214.291V214.188C95.2044 213.982 95.3073 213.776 95.4102 213.57C95.5131 213.467 95.5131 213.363 95.616 213.26C95.7189 212.951 95.9247 212.642 96.0276 212.436C96.1305 212.23 96.2334 212.127 96.2334 211.921C96.3363 211.715 96.3363 211.612 96.4392 211.406C96.5421 211.2 96.5421 211.097 96.645 210.891C96.7479 210.788 96.7479 210.582 96.8508 210.479C96.9537 210.067 97.0566 209.758 97.2624 209.346C97.3652 209.037 97.4682 208.728 97.571 208.418V208.315C97.6739 208.006 97.7768 207.594 97.7768 207.285V207.182C97.8797 206.873 97.8797 206.667 97.9826 206.358C98.0855 205.946 98.1884 205.534 98.1884 205.122V204.916C98.1884 204.813 98.1884 204.71 98.2913 204.607V204.504C98.2913 204.401 98.2913 204.298 98.2913 204.195C98.3942 203.68 98.3942 203.164 98.3942 202.752V202.546C98.3942 202.34 98.3942 202.134 98.3942 201.928C98.3942 201.207 98.4971 200.383 98.4971 199.662V199.559C98.4971 199.353 98.4971 199.147 98.4971 198.941V198.735V198.425C98.4971 198.219 98.4971 197.91 98.4971 197.704C98.4971 197.601 98.4971 197.601 98.4971 197.498C98.4971 197.395 98.4971 197.395 98.4971 197.292V197.086V196.983C98.4971 196.571 98.4971 196.262 98.3942 195.85V195.747C98.3942 195.438 98.2913 195.129 98.2913 194.82C98.0855 193.171 97.7768 191.832 97.4681 190.699C97.2624 189.875 96.9537 189.154 96.7479 188.432C96.2334 186.887 95.7189 185.445 95.5131 183.487C95.5131 183.178 95.4102 182.766 95.4102 182.457C95.4102 182.045 95.4102 181.633 95.3073 181.221V181.118V181.015C95.3073 180.912 95.3073 180.809 95.3073 180.706C95.3073 180.5 95.3073 180.294 95.3073 180.088C95.3073 175.349 98.1884 169.786 101.79 167.725C102.201 167.519 102.51 167.313 102.922 167.21C103.23 167.107 103.436 167.107 103.745 167.107C104.054 167.107 104.259 167.107 104.465 167.107C104.568 167.107 104.671 167.107 104.877 167.21C105.185 167.313 105.597 167.416 105.906 167.622L126.382 179.47C125.971 179.264 125.456 179.058 124.942 179.058C124.633 179.058 124.221 179.058 123.81 179.161C123.295 179.264 122.678 179.47 122.06 179.882C121.443 180.191 120.826 180.706 120.311 181.221C118.974 182.56 117.739 184.312 116.916 186.166C116.71 186.578 116.607 186.99 116.401 187.402C116.195 188.02 115.99 188.639 115.887 189.257C115.681 190.287 115.578 191.317 115.578 192.244C115.578 192.553 115.578 192.862 115.578 193.171V193.274V193.377C115.681 195.541 115.887 196.983 116.298 198.322C116.401 198.632 116.401 198.838 116.504 199.147C116.71 199.662 116.813 200.177 117.019 200.692C117.224 201.413 117.533 202.134 117.739 202.958C117.842 203.267 117.842 203.577 117.945 203.783C118.048 204.092 118.048 204.401 118.15 204.71C118.356 205.637 118.562 206.77 118.665 208.006V208.109C118.665 208.315 118.665 208.418 118.665 208.625C118.665 208.831 118.665 209.037 118.665 209.14V209.243V209.346C118.665 209.449 118.665 209.552 118.665 209.758C118.665 209.861 118.665 209.964 118.665 210.17C118.665 210.273 118.665 210.376 118.665 210.582V210.891V211.2C118.665 211.406 118.665 211.612 118.665 211.818V211.921C118.665 212.333 118.665 212.642 118.665 213.054C118.665 213.467 118.665 213.776 118.665 214.188C118.665 214.394 118.665 214.6 118.665 214.703V214.909C118.665 215.424 118.562 215.836 118.562 216.351C118.562 216.557 118.459 216.763 118.459 217.072V217.278C118.356 217.69 118.356 218.102 118.253 218.515C118.15 218.824 118.15 219.03 118.048 219.339V219.442C118.048 219.648 117.945 219.854 117.945 220.06C117.945 220.266 117.842 220.472 117.842 220.678C117.842 220.781 117.842 220.884 117.739 220.884C117.636 221.09 117.636 221.399 117.533 221.605C117.43 222.017 117.327 222.326 117.121 222.738C117.019 223.047 116.916 223.356 116.813 223.666C116.71 223.975 116.504 224.387 116.401 224.696C116.298 225.005 116.092 225.314 115.99 225.52C115.887 225.726 115.784 225.829 115.681 226.035C115.578 226.241 115.475 226.344 115.475 226.55L115.372 226.653C115.269 226.756 115.269 226.859 115.166 227.065L115.064 227.168C115.064 227.271 114.961 227.374 114.961 227.374C114.755 227.683 114.652 227.889 114.446 228.198V228.301L114.343 228.405C114.24 228.508 114.24 228.611 114.137 228.714C114.035 228.817 114.035 228.92 113.932 229.023C113.829 229.126 113.829 229.229 113.726 229.332C113.623 229.435 113.52 229.641 113.417 229.744L113.314 229.847L113.211 229.95C113.108 230.053 113.006 230.156 113.006 230.259C113.006 230.259 113.006 230.362 112.903 230.362C112.8 230.465 112.8 230.465 112.697 230.568C112.594 230.671 112.491 230.774 112.388 230.877C112.285 230.98 112.182 231.083 112.182 231.186L111.977 231.392C111.565 231.907 111.051 232.319 110.536 232.834L110.433 232.937C110.33 233.04 110.124 233.143 110.022 233.35C109.816 233.556 109.507 233.762 109.301 233.968L109.198 234.071L109.095 234.174L108.993 234.277C108.89 234.38 108.684 234.483 108.581 234.586C108.272 234.792 107.964 235.101 107.552 235.307L107.449 235.41C107.346 235.513 107.14 235.616 107.038 235.719C106.935 235.822 106.832 235.822 106.832 235.925L103.951 237.882L101.378 239.325L101.275 239.428L101.07 239.531L83.7829 249.421Z" fill="black"/>
<path d="M83.6797 240.148L61.7626 227.477L61.8655 137.643C61.8655 134.243 62.7916 130.637 64.3351 127.34L86.2521 140.012C84.6058 143.309 83.6797 147.017 83.6797 150.417V240.148Z" fill="#B8DEE9"/>
<path fill-rule="evenodd" clip-rule="evenodd" d="M125.581 204.289L133.688 209.036C132.865 208.521 132.556 207.079 132.659 204.194C132.659 200.623 133.258 198.08 133.911 195.315C133.973 195.049 134.036 194.781 134.099 194.511C134.216 193.869 134.365 193.228 134.51 192.605C134.622 192.127 134.73 191.661 134.82 191.214C134.82 190.802 134.923 190.39 135.025 189.978C135.025 189.566 135.128 189.153 135.231 188.741L135.54 186.578V186.475C135.643 186.269 135.643 186.166 135.643 185.96C135.652 185.865 135.66 185.77 135.669 185.677C135.762 184.654 135.849 183.71 135.849 182.766V182.457V182.354V182.251C135.952 181.839 135.952 181.427 135.952 180.912C135.952 176.07 134.511 172.361 131.939 170.404C129.366 168.446 125.971 168.549 122.369 170.61C120.711 171.559 119.113 172.887 117.634 174.49L126.588 179.67C126.639 179.722 126.691 179.748 126.742 179.773C126.794 179.799 126.845 179.825 126.896 179.876C128.131 180.804 128.749 182.555 128.749 184.821C128.749 185.13 128.749 185.44 128.646 185.955V186.058V186.161C128.543 189.56 127.925 192.033 127.205 194.917C127.09 195.319 127.008 195.721 126.921 196.141C126.853 196.475 126.782 196.819 126.691 197.184C126.639 197.338 126.614 197.467 126.588 197.596C126.562 197.725 126.536 197.854 126.485 198.008C126.382 198.42 126.305 198.832 126.228 199.244C126.15 199.656 126.073 200.068 125.97 200.481C125.97 200.643 125.954 200.726 125.933 200.84C125.913 200.943 125.889 201.071 125.868 201.305C125.854 201.457 125.736 202.678 125.581 204.289Z" fill="#7AB2C4"/>
<path opacity="0.1" d="M83.695 249.314L63.3057 237.679L71.3071 232.999L83.6798 240.145L83.5921 225.516L86.4732 223.559L86.5761 223.456L86.679 223.353C86.8848 223.25 86.9877 223.147 87.0906 223.044L87.1935 222.941C87.3993 222.838 87.5022 222.735 87.708 222.529C87.9138 222.426 88.0167 222.323 88.2225 222.117C88.3254 222.014 88.5312 221.911 88.6341 221.808L88.8399 221.705L88.9428 221.602C89.2515 221.396 89.4572 221.19 89.663 220.983C89.7659 220.88 89.9717 220.777 90.0746 220.571L90.1775 220.468C90.692 220.056 91.1036 219.541 91.6181 219.026L91.8239 218.82C92.0297 218.614 92.1326 218.408 92.3384 218.202C92.4412 218.099 92.5441 217.996 92.5441 217.893C92.647 217.79 92.647 217.687 92.7499 217.584L92.8528 217.481L92.9557 217.378L93.0586 217.275C93.2644 217.069 93.4702 216.863 93.5731 216.554C93.676 216.348 93.8818 216.142 93.9847 215.935L94.0876 215.832V215.729C94.2934 215.42 94.4992 215.214 94.6021 214.905C94.8079 214.699 94.9108 214.39 95.0137 214.184V214.081C95.1166 213.875 95.2195 213.669 95.3224 213.463C95.4253 213.36 95.4253 213.257 95.5282 213.154C95.6311 212.845 95.8368 212.536 95.9397 212.33C96.0426 212.124 96.1455 212.021 96.1455 211.815C96.2484 211.609 96.2484 211.506 96.3513 211.3C96.4542 211.093 96.4542 210.99 96.5571 210.784C96.66 210.681 96.66 210.475 96.7629 210.372C96.8658 209.96 96.9687 209.651 97.1745 209.239C97.2774 208.93 97.3803 208.621 97.4832 208.312V208.209C97.5861 207.9 97.689 207.488 97.689 207.179V207.076C97.7919 206.767 97.7919 206.561 97.8948 206.252C97.9977 205.839 98.1006 205.427 98.1006 205.015V204.809C98.1006 204.706 98.1006 204.603 98.2035 204.5V204.397C98.2035 204.294 98.2035 204.191 98.2035 204.088C98.3064 203.573 98.3064 203.058 98.3064 202.646V202.44C98.3064 202.234 98.3064 202.028 98.3064 201.822C98.3064 201.1 98.4093 200.276 98.4093 199.555V199.452C98.4093 199.246 98.4093 199.04 98.4093 198.834V198.628V198.319C98.4093 198.113 98.4093 197.804 98.4093 197.598C98.4093 197.495 98.4093 197.495 98.4093 197.392C98.4093 197.289 98.4093 197.289 98.4093 197.186V196.98V196.877C98.4093 196.465 98.4093 196.155 98.3064 195.743V195.64C98.3064 195.331 98.2035 195.022 98.2035 194.713C97.9977 193.065 97.689 191.726 97.3803 190.592C97.1745 189.768 96.8658 189.047 96.66 188.326C96.1455 186.781 95.6311 185.338 95.4253 183.381C95.4253 183.072 95.3224 182.66 95.3224 182.351C95.3224 181.939 95.3224 181.527 95.2195 181.114V181.011V180.908C95.2195 180.805 95.2195 180.702 95.2195 180.599C95.2195 180.393 95.2195 180.187 95.2195 179.981C95.2195 175.242 98.1006 169.679 101.702 167.619C102.114 167.413 102.422 167.207 102.834 167.104C103.143 167.001 103.348 167.001 103.657 167.001C103.966 167.001 104.171 167.001 104.377 167.001C104.48 167.001 104.583 167.001 104.789 167.104C105.098 167.207 105.509 167.31 105.818 167.516L126.294 179.363C125.883 179.157 125.368 178.951 124.854 178.951C124.545 178.951 124.133 178.951 123.722 179.054C123.207 179.157 122.59 179.363 121.973 179.775C121.355 180.084 120.738 180.599 120.223 181.114C118.886 182.454 117.651 184.205 116.828 186.059C116.622 186.472 116.519 186.884 116.313 187.296C116.108 187.914 115.902 188.532 115.799 189.15C115.593 190.18 115.49 191.21 115.49 192.138C115.49 192.447 115.49 192.756 115.49 193.065V193.168V193.271C115.593 195.434 115.799 196.877 116.21 198.216C116.313 198.525 116.313 198.731 116.416 199.04C116.622 199.555 116.725 200.07 116.931 200.585C117.136 201.307 117.445 202.028 117.651 202.852C117.754 203.161 117.754 203.47 117.857 203.676C117.96 203.985 117.96 204.294 118.063 204.603C118.268 205.53 118.474 206.664 118.577 207.9V208.003C118.577 208.209 118.577 208.312 118.577 208.518C118.577 208.724 118.577 208.93 118.577 209.033V209.136V209.239C118.577 209.342 118.577 209.445 118.577 209.651C118.577 209.754 118.577 209.857 118.577 210.063C118.577 210.166 118.577 210.269 118.577 210.475V210.784V211.093C118.577 211.3 118.577 211.506 118.577 211.712V211.815C118.577 212.227 118.577 212.536 118.577 212.948C118.577 213.36 118.577 213.669 118.577 214.081C118.577 214.287 118.577 214.493 118.577 214.596V214.802C118.577 215.317 118.474 215.729 118.474 216.245C118.474 216.451 118.371 216.657 118.371 216.966V217.172C118.268 217.584 118.268 217.996 118.165 218.408C118.063 218.717 118.063 218.923 117.96 219.232V219.335C117.96 219.541 117.857 219.747 117.857 219.953C117.857 220.159 117.754 220.365 117.754 220.571C117.754 220.674 117.754 220.777 117.651 220.777C117.548 220.983 117.548 221.293 117.445 221.499C117.342 221.911 117.239 222.22 117.034 222.632C116.931 222.941 116.828 223.25 116.725 223.559C116.622 223.868 116.416 224.28 116.313 224.589C116.21 224.898 116.005 225.207 115.902 225.413C115.799 225.619 115.696 225.722 115.593 225.928C115.49 226.135 115.387 226.238 115.387 226.444L115.284 226.547C115.181 226.65 115.181 226.753 115.079 226.959L114.976 227.062C114.976 227.165 114.873 227.268 114.873 227.268C114.667 227.577 114.564 227.783 114.358 228.092V228.195L114.255 228.298C114.152 228.401 114.152 228.504 114.05 228.607C113.947 228.71 113.947 228.813 113.844 228.916C113.741 229.019 113.741 229.122 113.638 229.225C113.535 229.328 113.432 229.534 113.329 229.637L113.226 229.74L113.124 229.843C113.021 229.946 112.918 230.049 112.918 230.152C112.918 230.152 112.918 230.255 112.815 230.255C112.712 230.358 112.712 230.358 112.609 230.461C112.506 230.564 112.403 230.667 112.3 230.77C112.197 230.873 112.095 230.976 112.095 231.08L111.889 231.286C111.477 231.801 110.963 232.213 110.448 232.728L110.345 232.831C110.242 232.934 110.037 233.037 109.934 233.243C109.728 233.449 109.419 233.655 109.213 233.861L109.111 233.964L109.008 234.067L108.905 234.17C108.802 234.273 108.596 234.376 108.493 234.479C108.184 234.685 107.876 234.994 107.464 235.2L107.361 235.303C107.258 235.406 107.053 235.509 106.95 235.612C106.847 235.715 106.744 235.715 106.744 235.818L103.863 237.776L101.29 239.218L101.187 239.321L100.982 239.424L83.695 249.314Z" fill="black"/>
<path opacity="0.1" d="M83.6797 240.148L61.7626 227.477L61.8655 137.643C61.8655 134.243 62.7916 130.637 64.3351 127.34L86.2521 140.012C84.6058 143.309 83.6797 147.017 83.6797 150.417V240.148Z" fill="#263238"/>
<path fill-rule="evenodd" clip-rule="evenodd" d="M161.111 111.938L161.058 111.991V92.2111L139.141 79.5396L72.0524 118.378C71.7437 118.481 71.5379 118.584 71.3321 118.79C71.1263 118.893 71.0234 118.996 70.9205 119.1C70.8176 119.1 70.7147 119.203 70.6118 119.306C70.5089 119.306 70.406 119.409 70.3031 119.512L70.3031 119.512C70.2517 119.563 70.2002 119.589 70.1488 119.615C70.0973 119.64 70.0459 119.666 69.9944 119.718H69.8915L69.7886 119.821L69.4799 120.13L69.377 120.233L68.9654 120.645L68.7597 120.851L68.6567 120.954L68.451 121.16C68.451 121.263 68.3481 121.366 68.2452 121.469C68.1423 121.572 68.0394 121.701 67.9365 121.83C67.8336 121.958 67.7307 122.087 67.6278 122.19L67.5249 122.293C67.4734 122.345 67.422 122.422 67.3705 122.499C67.3191 122.576 67.2676 122.654 67.2162 122.705C67.1133 122.808 67.0104 122.911 66.9075 123.117C66.8561 123.169 66.8303 123.22 66.8046 123.272C66.7789 123.323 66.7532 123.375 66.7017 123.426C66.4959 123.632 66.2901 123.941 66.0843 124.251L65.9814 124.354L65.8785 124.56L65.2612 125.487C65.2097 125.641 65.1325 125.77 65.0554 125.899C64.9782 126.028 64.901 126.156 64.8496 126.311L64.5409 126.929C64.5016 127.008 64.4773 127.071 64.4565 127.126L64.4565 127.126C64.423 127.214 64.3987 127.277 64.3351 127.341L86.2521 140.013C84.6058 143.309 83.6797 147.018 83.6797 150.418V240.149L101.481 230.259C112.285 223.975 112.285 221.193 112.285 216.145C112.285 215.424 112.285 214.6 112.182 213.879V213.673V213.57V213.466V213.26C111.988 211.225 111.521 209.827 111.038 208.382L110.947 208.109C110.124 205.74 109.301 203.061 109.095 198.425C108.992 197.91 108.992 197.292 108.992 196.674V195.644V194.717C109.095 193.687 109.198 192.759 109.404 191.729C109.455 191.523 109.507 191.291 109.558 191.06L109.558 191.059C109.61 190.828 109.661 190.596 109.713 190.39C109.713 190.39 109.816 190.287 109.816 190.184C109.867 189.926 109.918 189.694 109.97 189.463C110.021 189.231 110.073 188.999 110.124 188.742L110.433 187.505C110.844 186.269 111.256 185.136 111.771 184.003C114.24 178.233 118.15 173.288 122.472 170.713C126.073 168.652 129.469 168.549 132.041 170.507C134.614 172.464 136.054 176.173 136.054 181.015C136.054 181.287 136.026 181.53 135.998 181.76V181.76C135.974 181.965 135.951 182.16 135.951 182.354V182.457V182.56V182.869C135.951 184.002 135.848 185.033 135.746 186.063L135.746 186.063C135.643 186.269 135.643 186.372 135.643 186.578V186.681L135.334 188.845C135.283 189.051 135.257 189.257 135.231 189.463C135.205 189.669 135.18 189.875 135.128 190.081C135.128 190.493 135.025 190.905 134.922 191.317C134.889 191.486 134.855 191.657 134.821 191.831L134.82 191.833C134.646 192.72 134.46 193.667 134.202 194.614C133.379 197.704 132.762 200.383 132.762 204.298C132.762 207.285 133.07 208.728 133.893 209.243L133.894 209.243C134.202 209.346 134.511 209.449 134.819 209.449H135.231C136.877 209.243 139.656 208.109 143.566 205.843L149.225 202.546L155.09 199.147L161.264 195.541V171.949V171.846L161.47 164.635V164.532V164.429V163.914V163.707C161.47 163.501 161.495 163.27 161.521 163.038C161.547 162.806 161.573 162.574 161.573 162.368C161.573 162.265 161.598 162.162 161.624 162.059C161.65 161.956 161.676 161.853 161.676 161.75V161.544C161.727 161.338 161.753 161.132 161.778 160.926C161.804 160.72 161.83 160.514 161.881 160.308C161.881 160.153 161.907 160.025 161.933 159.896L161.933 159.896L161.933 159.896C161.959 159.767 161.984 159.638 161.984 159.484C161.984 158.969 162.087 158.557 162.19 158.144L162.19 158.144V158.041C162.19 157.938 162.216 157.861 162.241 157.784C162.267 157.707 162.293 157.629 162.293 157.526C162.344 157.217 162.422 156.934 162.499 156.651C162.576 156.367 162.653 156.084 162.705 155.775C162.807 155.775 162.807 155.672 162.807 155.569C162.91 155.26 163.013 154.925 163.116 154.59C163.219 154.255 163.322 153.921 163.425 153.611C163.425 153.56 163.451 153.508 163.476 153.457C163.502 153.405 163.528 153.354 163.528 153.302C163.733 152.684 163.939 152.169 164.145 151.654L164.145 151.654L164.145 151.654C164.145 151.603 164.171 151.551 164.197 151.5C164.222 151.448 164.248 151.396 164.248 151.345V151.242C164.313 151.111 164.378 150.971 164.447 150.823C164.594 150.504 164.757 150.152 164.968 149.8V149.697L165.174 149.388C165.367 149.001 165.601 148.654 165.824 148.322L165.825 148.322C165.958 148.124 166.088 147.932 166.203 147.739C167.026 146.503 167.849 145.473 168.878 144.443L168.981 144.34C169.393 143.825 169.907 143.412 170.422 143L170.422 143L170.525 142.897C171.657 141.97 172.788 141.249 174.023 140.528C178.205 138.179 180.769 137.956 183.119 137.752L183.181 137.746C185.033 137.643 186.68 137.437 189.149 136.201L189.972 135.789C191.619 134.759 193.265 133.007 194.5 130.638C195.734 128.371 196.352 125.796 196.352 123.529C196.352 123.117 196.352 122.602 196.249 122.19V122.19C196.249 121.881 196.249 121.572 196.146 121.366C195.94 120.13 195.426 119.306 194.705 118.687C194.654 118.687 194.628 118.662 194.603 118.636C194.577 118.61 194.551 118.584 194.5 118.584C194.448 118.533 194.397 118.507 194.345 118.481C194.294 118.456 194.242 118.43 194.191 118.378L184.901 113.026C183.359 114.392 182.088 115.749 180.917 117.039C180.625 117.331 180.351 117.64 180.079 117.945C179.68 118.393 179.288 118.834 178.859 119.202C177.83 120.233 176.698 121.263 175.258 122.087C175.155 122.139 175.078 122.19 175 122.242C174.923 122.293 174.846 122.345 174.743 122.396C174.64 122.448 174.563 122.499 174.486 122.551C174.409 122.602 174.332 122.654 174.229 122.705C173.993 122.823 173.773 122.956 173.557 123.086L173.556 123.086C173.204 123.298 172.862 123.505 172.479 123.632C172.377 123.684 172.299 123.71 172.222 123.735C172.145 123.761 172.068 123.787 171.965 123.838C171.759 123.941 171.656 123.941 171.45 123.941C171.399 123.941 171.322 123.967 171.245 123.993C171.167 124.019 171.09 124.044 171.039 124.044C170.795 124.044 170.615 123.98 170.397 123.902C170.374 123.894 170.351 123.885 170.327 123.877C170.291 123.864 170.254 123.851 170.216 123.838C170.195 123.827 170.175 123.816 170.155 123.804L161.111 118.654V111.938Z" fill="url(#paint10_linear)"/>
<path fill-rule="evenodd" clip-rule="evenodd" d="M170.113 123.838L170.042 123.797C170.065 123.811 170.089 123.825 170.113 123.838ZM161.116 118.636L161.161 120.438V120.541C161.264 120.953 161.264 121.262 161.264 121.674V121.674V121.881V122.087V122.808C161.264 123.014 161.29 123.194 161.315 123.374C161.341 123.555 161.367 123.735 161.367 123.941C161.367 124.095 161.393 124.224 161.418 124.353C161.444 124.482 161.47 124.611 161.47 124.765C161.47 124.92 161.495 125.1 161.521 125.28C161.547 125.46 161.573 125.641 161.573 125.795C161.573 125.95 161.598 126.079 161.624 126.207C161.65 126.336 161.676 126.465 161.676 126.619C161.727 126.774 161.753 126.929 161.778 127.083C161.804 127.238 161.83 127.392 161.881 127.547C161.933 127.65 161.959 127.778 161.984 127.907C162.01 128.036 162.036 128.165 162.087 128.268C162.139 128.422 162.164 128.551 162.19 128.68C162.216 128.809 162.241 128.937 162.293 129.092C162.344 129.195 162.37 129.272 162.396 129.35C162.422 129.427 162.447 129.504 162.499 129.607V129.71V129.813C162.499 130.019 162.602 130.225 162.704 130.431L162.705 130.431C162.705 130.637 162.807 130.843 162.91 130.946L163.013 131.049C163.219 131.461 163.425 131.77 163.631 132.08L163.631 132.08H163.734C163.939 132.286 164.042 132.389 164.145 132.595L164.454 132.904L164.557 133.007L164.66 133.11C164.711 133.161 164.788 133.213 164.865 133.264C164.943 133.316 165.02 133.367 165.071 133.419C165.174 133.419 165.38 133.522 165.483 133.625H165.586C165.736 133.625 165.832 133.68 165.953 133.75C165.997 133.776 166.045 133.803 166.1 133.831C166.306 133.934 166.512 134.037 166.718 134.037C166.82 134.037 166.923 134.063 167.026 134.088C167.129 134.114 167.232 134.14 167.335 134.14H167.952H168.673C168.878 134.14 169.187 134.14 169.393 134.037C169.496 133.985 169.624 133.96 169.753 133.934C169.882 133.908 170.01 133.882 170.113 133.831H170.216C170.319 133.779 170.422 133.754 170.525 133.728C170.628 133.702 170.73 133.676 170.833 133.625C170.936 133.573 171.065 133.522 171.194 133.47C171.322 133.419 171.451 133.367 171.554 133.316L171.657 133.213L171.862 133.11C172.068 133.11 172.274 133.007 172.48 132.904C172.634 132.801 172.788 132.723 172.943 132.646C173.097 132.569 173.251 132.492 173.406 132.389L173.509 132.286C173.612 132.183 173.714 132.183 173.714 132.183C173.766 132.131 173.843 132.105 173.92 132.08C173.997 132.054 174.075 132.028 174.126 131.977C178.007 129.797 180.494 127.182 182.71 124.852L182.711 124.851C182.904 124.649 183.094 124.448 183.284 124.25L183.342 124.188C185.171 122.256 186.809 120.524 189.355 118.893L189.458 118.79C189.561 118.738 189.663 118.661 189.766 118.584L189.766 118.584L189.766 118.584C189.869 118.507 189.972 118.429 190.075 118.378C191.721 117.451 193.162 117.451 194.294 118.069L185.158 112.805C183.5 114.248 182.153 115.683 180.917 117.043C180.626 117.335 180.351 117.644 180.08 117.949L180.08 117.949C179.68 118.398 179.288 118.839 178.859 119.207C177.83 120.237 176.698 121.267 175.258 122.091C175.155 122.143 175.078 122.194 175.001 122.246C174.923 122.297 174.846 122.349 174.743 122.4C174.64 122.452 174.563 122.503 174.486 122.555C174.409 122.607 174.332 122.658 174.229 122.71C173.994 122.827 173.773 122.96 173.557 123.091L173.557 123.091L173.557 123.091C173.204 123.303 172.862 123.509 172.48 123.637C172.377 123.688 172.3 123.714 172.222 123.74C172.145 123.766 172.068 123.791 171.965 123.843C171.759 123.946 171.656 123.946 171.451 123.946H171.451C171.399 123.946 171.322 123.972 171.245 123.997L171.245 123.997C171.168 124.023 171.091 124.049 171.039 124.049C170.795 124.049 170.615 123.984 170.398 123.906C170.34 123.886 170.28 123.864 170.216 123.843C168.878 123.122 168.261 120.031 168.261 111.686V105.809C168.227 105.826 168.192 105.844 168.158 105.861V111.682C168.158 119.775 168.753 123.001 170.042 123.797L161.116 118.636Z" fill="#7AB2C3"/>
<path opacity="0.3" d="M86.1963 139.983L64.2706 127.322C64.3736 127.219 64.3736 127.116 64.4765 126.91C64.5794 126.704 64.6824 126.498 64.7853 126.292C64.8883 125.983 65.0941 125.778 65.1971 125.469C65.4029 125.16 65.6088 124.851 65.8147 124.542C65.9176 124.439 65.9176 124.336 66.0206 124.234C66.2264 123.925 66.4323 123.616 66.6382 123.41C66.7411 123.307 66.7411 123.204 66.8441 123.101C66.947 122.895 67.0499 122.792 67.1529 122.689C67.2558 122.484 67.4617 122.278 67.5646 122.072C67.7705 121.866 67.9764 121.557 68.1822 121.351C68.2852 121.248 68.3881 121.145 68.3881 121.042C68.4911 120.94 68.4911 120.94 68.594 120.837C68.6969 120.734 68.7999 120.631 68.9028 120.528C69.0057 120.425 69.1087 120.322 69.3146 120.116L69.4175 120.013C69.5204 119.91 69.7263 119.704 69.8292 119.601C69.8292 119.601 69.8292 119.601 69.9322 119.601C70.0351 119.498 70.1381 119.498 70.241 119.395C70.4469 119.19 70.6527 119.087 70.8586 118.881C70.9616 118.778 71.0645 118.675 71.2704 118.572C71.4762 118.366 71.6821 118.263 71.9909 118.16L139.106 79.5587L161.032 92.22L131.489 109.205L93.7107 131.027C93.4019 131.233 93.0931 131.336 92.8872 131.542C92.6813 131.748 92.3725 131.954 92.1666 132.16C92.0637 132.263 91.8578 132.366 91.7549 132.469C91.549 132.674 91.2402 132.88 91.0343 133.086C90.7255 133.395 90.4167 133.601 90.2108 133.91C89.5932 134.527 89.0785 135.248 88.4609 136.071C88.255 136.38 88.0492 136.689 87.8433 136.998C87.2257 137.924 86.711 138.954 86.1963 139.983Z" fill="white"/>
<path d="M5.82474 191.184C5.82474 191.184 6.44142 179.723 13.7387 174.895C21.036 170.068 35.3858 165.941 35.3858 165.941C35.3858 165.941 38.6531 171.449 40.058 176.055C41.4629 180.662 38.0922 190.314 38.0922 190.314L5.82474 191.184Z" fill="url(#paint11_linear)"/>
<path d="M48.303 389.029C48.303 389.029 60.6506 383.466 66.8245 383.26C72.9983 382.951 73.5128 390.162 66.8245 395.828C60.1362 401.392 54.9913 402.113 49.4349 404.379C44.4958 406.44 42.7466 406.543 38.7336 403.967C33.4859 400.567 37.7046 391.502 37.7046 391.502L48.303 389.029Z" fill="#305F6D"/>
<path d="M12.4947 367.807C12.4947 367.807 22.3728 363.686 28.4438 363.377C34.6176 363.068 36.7784 368.425 30.0901 373.988C23.4018 379.551 19.183 380.787 13.6266 383.054C8.68756 385.114 6.93832 385.217 2.92534 382.642C-2.5282 379.242 1.69057 370.176 1.89637 370.176L12.4947 367.807Z" fill="#305F6D"/>
<path d="M49.1263 245.727C49.1263 245.727 59.9305 304.14 59.9305 322.58C59.9305 354.929 59.6218 389.029 59.6218 389.029C59.6218 389.029 54.2712 394.695 49.0234 394.695C37.2932 394.695 36.0584 388.823 36.0584 388.823C36.0584 388.823 35.8526 350.293 34.8236 332.676C34.1034 320.52 33.3831 303.316 28.5469 289.099C28.444 303.625 28.444 308.364 27.2093 324.126C26.2832 335.767 21.4471 367.188 21.2413 369.249C17.537 373.782 6.01252 376.872 0.1474 370.279C0.558987 365.128 3.85169 328.865 3.4401 310.115C3.02851 292.807 -1.39605 252.011 8.48205 243.976C17.1254 237.073 49.1263 245.727 49.1263 245.727Z" fill="url(#paint12_linear)"/>
<path d="M35.3378 140.646C31.0162 137.658 22.7844 138.585 19.183 146.209C17.228 150.433 20.0062 161.765 20.4178 169.698C20.7265 176.085 18.6685 179.794 18.6685 179.794C18.6685 179.794 18.6685 179.794 24.1221 182.06C29.5756 184.327 35.3378 182.06 35.3378 182.06L35.132 172.273C35.132 172.273 40.9972 171.346 42.0261 170.419C44.4956 168.152 45.8333 161.353 44.7014 152.596C43.0551 139.513 36.8813 141.779 35.3378 140.646Z" fill="#FFD0CA"/>
<path d="M51.5958 206.682C50.9784 195.453 49.0233 193.29 46.8625 188.757C44.8046 184.224 35.2352 179.382 35.2352 179.382C35.2352 179.382 29.0614 179.279 24.1223 177.527C19.5948 175.982 18.1543 170.831 14.3471 174.128C4.26321 182.988 3.33714 190.302 4.3661 202.768C4.88059 209.155 5.18928 218.942 5.49797 235.116C5.70376 246.036 3.85162 253.351 2.30817 257.884C9.30515 265.095 27.1063 269.834 36.0583 267.465C41.409 266.022 49.4349 262.829 53.0363 258.399C51.4929 250.466 52.4189 222.341 51.5958 206.682Z" fill="url(#paint13_linear)"/>
<path d="M35.2352 176.703C35.2352 176.703 27.8267 176.394 22.476 173.613C15.6848 170.213 14.4501 174.231 14.4501 174.231C14.4501 174.231 17.9486 181.442 23.505 183.193C29.0614 184.945 34.1034 184.636 39.6598 181.957C39.6598 178.351 35.2352 176.703 35.2352 176.703Z" fill="url(#paint14_linear)"/>
<path d="M40.6887 155.996C41.306 153.833 42.8495 148.682 43.2611 146.724C43.6727 144.355 43.7756 140.852 40.5858 137.452C37.2931 134.053 26.0773 133.023 21.9614 135.392C17.8455 137.761 9.2022 142.088 12.2891 156.099C14.7586 167.431 17.1253 168.771 20.5209 171.449C23.5049 173.819 28.7526 174.334 28.7526 174.334C28.7526 174.334 31.7366 172.17 32.2511 167.947C32.4569 166.607 32.2511 162.486 32.2511 162.486C32.2511 162.486 29.2671 156.511 31.5308 154.451C34.0004 152.184 36.5728 155.79 37.0873 157.232C39.1452 162.177 41.1002 164.547 40.6887 155.996Z" fill="#305F6D"/>
<path d="M116.73 149.609C112.305 151.051 109.835 151.772 109.835 151.772C109.835 151.772 110.556 150.124 110.967 147.651C111.482 145.179 110.144 145.179 108.909 148.167C107.778 151.051 102.221 159.396 102.221 159.396C97.2821 163.62 82.7736 173.201 77.6288 175.57C69.4999 179.279 46.451 190.199 45.8336 190.096C45.8336 190.096 49.0234 208.949 56.5349 205.961C64.0464 203.077 80.5099 190.92 85.8605 186.284C91.6227 181.442 103.25 168.668 107.675 166.092C111.893 163.62 121.36 161.456 124.447 154.554C125.887 151.257 121.154 148.167 116.73 149.609Z" fill="#FFD0CA"/>
<path d="M62.6056 179.279C48.3029 184.945 46.0392 183.4 40.9972 188.036C35.9553 192.775 36.1611 206.682 40.9972 210.597C47.4797 215.851 63.5317 204.107 68.9852 201.325C74.5416 185.769 62.6056 179.279 62.6056 179.279Z" fill="url(#paint15_linear)"/>
<path d="M283.597 69.7691C283.597 69.7691 271.25 68.842 268.986 71.8296C269.295 81.8226 272.587 91.0944 272.69 91.1974C266.208 89.24 256.33 86.2524 251.391 81.4105C249.847 79.8652 246.143 73.0658 245.114 73.2718C240.792 74.3021 246.246 79.8652 245.114 81.7195C243.468 84.2951 238.117 81.9256 233.384 83.4709C227.519 85.4283 225.769 92.0216 233.384 94.3911C236.573 95.4213 243.982 92.5367 250.259 94.082C253.243 94.8032 258.388 97.8938 260.137 99.13C272.896 108.402 279.378 108.402 283.083 108.608C287.713 108.917 287.199 102.633 288.022 98.4089C289.154 92.3307 283.597 69.7691 283.597 69.7691Z" fill="#FFD0CA"/>
<path d="M271.97 47.0013C282.98 48.4436 283.289 60.9091 286.273 77.5984C278.555 81.4102 273.513 82.3374 266.516 79.9679C265.899 76.6713 263.944 70.49 263.841 68.6356C263.429 61.2181 265.899 46.1771 271.97 47.0013Z" fill="#9FC8D5"/>
<defs>
<linearGradient id="paint0_linear" x1="218.193" y1="165.827" x2="248.464" y2="165.827" gradientUnits="userSpaceOnUse">
<stop stop-color="#066EA9"/>
<stop offset="1" stop-color="#1680BB"/>
</linearGradient>
<linearGradient id="paint1_linear" x1="242.391" y1="170.788" x2="284.622" y2="170.788" gradientUnits="userSpaceOnUse">
<stop stop-color="#066EA9"/>
<stop offset="1" stop-color="#1680BB"/>
</linearGradient>
<linearGradient id="paint2_linear" x1="231.516" y1="64.7305" x2="243.041" y2="64.7305" gradientUnits="userSpaceOnUse">
<stop stop-color="#3A2BAA"/>
<stop offset="1" stop-color="#2F1784"/>
</linearGradient>
<linearGradient id="paint3_linear" x1="272.999" y1="30.1595" x2="238.018" y2="119.643" gradientUnits="userSpaceOnUse">
<stop stop-color="#DEF1F7"/>
<stop offset="1" stop-color="#B7DDE9"/>
</linearGradient>
<linearGradient id="paint4_linear" x1="178.558" y1="196.591" x2="203.403" y2="196.591" gradientUnits="userSpaceOnUse">
<stop offset="0.00518135" stop-color="#4ED5FF"/>
<stop offset="1" stop-color="#22ACD7"/>
</linearGradient>
<linearGradient id="paint5_linear" x1="146.361" y1="149.441" x2="203.887" y2="149.441" gradientUnits="userSpaceOnUse">
<stop offset="0.00518135" stop-color="#4ED5FF"/>
<stop offset="1" stop-color="#22ACD7"/>
</linearGradient>
<linearGradient id="paint6_linear" x1="146.248" y1="99.6523" x2="170.166" y2="99.6523" gradientUnits="userSpaceOnUse">
<stop offset="0.00518135" stop-color="#4ED5FF"/>
<stop offset="1" stop-color="#22ACD7"/>
</linearGradient>
<linearGradient id="paint7_linear" x1="146.27" y1="126.349" x2="245.652" y2="126.349" gradientUnits="userSpaceOnUse">
<stop offset="0.00518135" stop-color="#4ED5FF"/>
<stop offset="1" stop-color="#22ACD7"/>
</linearGradient>
<linearGradient id="paint8_linear" x1="92.0846" y1="204.637" x2="58.4245" y2="337.551" gradientUnits="userSpaceOnUse">
<stop offset="0.00518135" stop-color="#4ED5FF"/>
<stop offset="1" stop-color="#22ACD7"/>
</linearGradient>
<linearGradient id="paint9_linear" x1="158.472" y1="242.102" x2="85.2548" y2="282.332" gradientUnits="userSpaceOnUse">
<stop offset="0.00518135" stop-color="#4ED5FF"/>
<stop offset="1" stop-color="#22ACD7"/>
</linearGradient>
<linearGradient id="paint10_linear" x1="160.303" y1="97.109" x2="90.33" y2="218.307" gradientUnits="userSpaceOnUse">
<stop stop-color="#DEF1F7"/>
<stop offset="1" stop-color="#B7DDE9"/>
</linearGradient>
<linearGradient id="paint11_linear" x1="12.9415" y1="173.802" x2="38.6419" y2="189.525" gradientUnits="userSpaceOnUse">
<stop stop-color="#066EA9"/>
<stop offset="1" stop-color="#1680BB"/>
</linearGradient>
<linearGradient id="paint12_linear" x1="30.0389" y1="275.461" x2="30.039" y2="378.746" gradientUnits="userSpaceOnUse">
<stop stop-color="#B0D9E7"/>
<stop offset="1" stop-color="#8AC9DC"/>
</linearGradient>
<linearGradient id="paint13_linear" x1="31" y1="179.428" x2="7.90866" y2="260.856" gradientUnits="userSpaceOnUse">
<stop stop-color="#1691D6"/>
<stop offset="1" stop-color="#1680BB"/>
</linearGradient>
<linearGradient id="paint14_linear" x1="14.483" y1="178.25" x2="39.7078" y2="178.25" gradientUnits="userSpaceOnUse">
<stop stop-color="#066EA9"/>
<stop offset="1" stop-color="#1680BB"/>
</linearGradient>
<linearGradient id="paint15_linear" x1="37.3359" y1="195.56" x2="70.523" y2="195.56" gradientUnits="userSpaceOnUse">
<stop stop-color="#066EA9"/>
<stop offset="1" stop-color="#1680BB"/>
</linearGradient>
</defs>
</svg>
