<svg width="109" height="150" viewBox="0 0 109 150" fill="none" xmlns="http://www.w3.org/2000/svg">
<path d="M29.0613 47.3124L23.8148 44.3929C22.4342 43.5588 22.02 44.532 21.4677 45.5051L16.9116 54.2636C16.3593 55.2367 15.9451 55.9319 17.0496 56.766L22.02 59.6855C22.8484 60.2416 23.4006 60.2416 23.9529 59.2684L28.7852 50.0929C29.3374 48.9807 30.1658 48.0075 29.0613 47.3124Z" fill="url(#paint0_linear)"/>
<path d="M29.0613 47.3124L23.8148 44.3929C22.4342 43.5588 22.02 44.532 21.4677 45.5051L16.9116 54.2636C16.3593 55.2367 15.9451 55.9319 17.0496 56.766L22.02 59.6855C22.8484 60.2416 23.4006 60.2416 23.9529 59.2684L28.7852 50.0929C29.3374 48.9807 30.1658 48.0075 29.0613 47.3124Z" fill="black" fill-opacity="0.1"/>
<path d="M28.647 47.0346L23.4005 44.1152C22.0198 43.281 21.6056 44.2542 21.0534 45.2273L16.4972 53.9858C15.945 54.959 15.5308 55.6541 16.6353 56.4882L21.6056 59.4077C22.434 59.9638 22.9863 59.9638 23.5385 58.9906L28.3708 49.8151C28.9231 48.7029 29.7515 47.7298 28.647 47.0346Z" fill="url(#paint1_linear)"/>
<path d="M16.9114 54.6811L23.1244 58.1567L28.647 47.8689L22.434 44.3934L16.9114 54.6811Z" fill="white"/>
<path opacity="0.6" d="M21.6055 46.8955L26.99 50.093L27.9565 48.1467L22.572 44.9492L21.6055 46.8955Z" fill="url(#paint2_linear)"/>
<path d="M18.7065 56.9053L20.0871 57.7395L20.5013 57.1834L18.9826 56.3492L18.7065 56.9053Z" fill="white"/>
<path d="M26.7138 52.4567C26.7138 52.4567 27.128 51.7616 27.266 51.0665C27.4041 50.6494 26.9899 50.0933 26.5757 50.9275C26.1615 51.6226 25.1951 52.4567 25.1951 52.4567L23.4002 55.6542C23.4002 55.6542 23.9525 56.9055 26.0234 55.7933C27.9564 54.8201 28.0944 52.8738 27.8183 52.7348C27.6802 52.4567 26.7138 52.4567 26.7138 52.4567Z" fill="#FFD0CA"/>
<path d="M6.41832 45.5056C6.41832 45.9226 2.27636 47.3129 1.58604 50.5104C0.757644 53.5689 1.17184 56.6274 2.1383 57.6006C3.10475 58.5737 6.97058 57.0445 6.97058 57.0445L6.41832 45.5056Z" fill="#FFD0CA"/>
<path d="M5.03766 115.156C5.45185 116.268 6.55638 116.129 8.76542 115.434C10.6983 114.739 12.2171 113.905 13.5977 112.932C14.9784 111.959 14.9784 111.82 15.1164 111.125C15.3926 110.151 14.0119 109.595 11.6648 110.291C11.3887 110.43 11.2506 110.43 10.9745 110.43C11.3887 110.569 11.8029 110.708 12.079 110.986C12.4932 111.82 11.2506 112.654 9.73188 113.349C8.35123 114.044 7.2467 114.044 6.55638 113.766C6.00412 113.488 5.31379 113.21 5.03766 113.071C4.89959 114.044 4.76153 114.461 5.03766 115.156Z" fill="#282525"/>
<path d="M18.8443 115.017C18.7063 114.6 18.154 114.461 17.7398 114.461C16.4972 114.878 15.8069 115.156 15.8069 115.156C15.8069 115.156 16.083 109.178 16.4972 104.452C17.1876 100.42 17.7398 95.415 17.7398 92.9126C17.7398 92.6345 17.7398 90.2711 17.7398 89.9931C17.0495 90.2711 13.0456 90.8272 11.6649 90.8272C11.6649 91.1053 11.9411 93.1906 11.9411 95.693C11.9411 99.5857 11.803 104.452 11.803 104.173C11.6649 107.371 11.6649 111.959 11.803 114.461C11.9411 115.712 11.803 116.547 11.803 117.242C12.0791 117.381 12.7695 117.659 13.3217 117.937C14.0121 118.215 15.1166 118.215 16.4972 117.52C17.8779 116.686 19.2585 115.712 18.8443 115.017Z" fill="#FFD0CA"/>
<path d="M12.079 110.986C11.9409 110.569 11.3886 110.429 10.9744 110.429C9.73185 110.847 9.04152 111.125 9.04152 111.125C9.04152 111.125 9.17959 106.676 9.45572 103.2C9.59379 100.281 10.008 92.0784 10.146 90.2711C8.21313 89.9931 6.00409 90.4101 4.48537 89.1589C4.48537 89.576 4.48537 91.5223 4.48537 92.0784C4.3473 94.4418 4.7615 97.6393 4.89956 100.003C5.03763 101.949 5.03763 108.344 5.17569 110.429C5.31376 111.681 5.17569 112.515 5.17569 113.21C5.45183 113.349 6.14215 113.627 6.69441 113.905C7.38474 114.183 8.48926 114.183 9.86992 113.488C11.2506 112.654 12.4932 111.82 12.079 110.986Z" fill="#F9BBB7"/>
<path d="M11.8029 119.049C12.2171 120.161 13.3216 120.022 15.5307 119.327C17.4636 118.632 18.9823 117.798 20.363 116.825C21.7436 115.851 21.7436 115.712 21.8817 115.017C22.1578 114.044 20.7772 113.488 18.4301 114.183C18.1539 114.322 18.0159 114.322 17.7397 114.322C18.1539 114.461 18.5681 114.6 18.8442 114.878C19.2584 115.712 18.0159 116.547 16.4971 117.242C15.1165 117.937 14.012 117.937 13.3216 117.659C12.7694 117.381 12.079 117.103 11.8029 116.964C11.6649 117.937 11.5268 118.354 11.8029 119.049Z" fill="#282525"/>
<path d="M4.48522 90.2709C10.8362 94.5806 16.3588 92.4952 18.0156 91.6611C18.0156 87.9075 18.0156 74.1442 17.1872 70.1125C16.773 67.8881 15.6685 64.6906 15.6685 64.6906L5.31361 63.9955C5.31361 63.9955 3.93296 65.2467 2.82843 69.2784C1.72391 73.5881 2.69037 76.2295 2.82843 78.4539C3.3807 81.9295 4.34715 88.8806 4.48522 90.2709Z" fill="url(#paint3_linear)"/>
<path d="M11.1129 31.7424C11.6651 32.1595 13.598 32.5765 14.1503 37.0253C14.7026 40.9179 13.7361 42.0301 13.0458 42.3082C12.6316 42.4472 11.1129 42.4472 11.1129 42.4472V45.7838C11.1129 45.7838 9.17996 46.6179 7.38511 45.7838C5.4522 44.9496 5.4522 44.9496 5.4522 44.9496C5.4522 44.9496 6.14252 43.6984 6.00446 41.474C5.86639 38.8326 4.89994 34.9399 5.59026 33.5497C6.83285 31.0473 9.59415 30.6302 11.1129 31.7424Z" fill="#FFD0CA"/>
<path d="M3.51893 67.3323C4.48539 68.4445 8.48928 69.8347 10.008 69.8347C13.8738 69.8347 15.5306 68.5835 16.4971 67.3323C15.1164 63.0226 15.8067 57.0446 15.8067 57.0446C15.8067 57.0446 17.7397 53.43 16.359 50.5105C14.9784 47.591 14.15 46.2008 12.7693 45.6447C11.3887 45.0886 4.89959 45.0886 4.89959 45.0886C4.89959 45.0886 1.86215 48.2862 2.82861 52.5959C4.34732 59.13 3.93313 63.5787 3.51893 67.3323Z" fill="url(#paint4_linear)"/>
<path d="M6.00394 45.3667C6.00394 45.3667 7.52266 47.3131 9.59363 46.757C11.6646 46.2009 12.7691 45.7838 12.7691 45.7838C12.7691 45.7838 12.3549 45.0887 11.1124 44.9497C9.04137 44.6716 6.41813 43.5594 6.41813 43.5594L6.00394 45.3667Z" fill="#1BACD8"/>
<path d="M6.97055 43.2812C6.14216 42.169 3.93312 42.7251 2.8286 44.3934C-1.72756 51.3445 3.51892 53.5689 3.51892 53.5689C3.51892 53.5689 7.79894 44.2544 6.97055 43.2812Z" fill="#1BACD8"/>
<path d="M14.2878 35.496C14.1497 37.0252 12.9071 37.4423 11.8026 38.6935C10.6981 39.8057 10.1458 40.9179 7.66064 42.7252C6.83224 43.4203 6.97031 48.2861 5.31353 51.7617C3.51868 55.3763 4.6232 56.0714 4.6232 56.0714C4.6232 56.0714 -0.485217 54.4031 1.58576 48.7032C2.41415 46.4788 5.31353 44.8105 5.31353 42.5862C5.31353 41.613 4.07094 40.5008 3.51868 38.5545C2.13802 32.4375 4.89933 30.7692 7.52257 30.2131C12.3549 29.24 14.5639 32.2985 14.2878 35.496Z" fill="#282525"/>
<path d="M13.0456 37.5815C13.0456 37.5815 11.9411 35.6351 11.3889 37.5815C10.9747 39.3888 12.4934 40.0839 12.4934 40.0839L13.0456 37.5815Z" fill="#FFD0CA"/>
<path d="M4.89966 41.4739C4.89966 41.4739 4.89966 42.7251 5.03772 43.0032C5.45192 43.4203 6.69451 43.8373 7.24677 43.6983C7.66096 43.5593 8.21322 42.7251 8.35129 42.3081C6.69451 42.03 4.89966 41.4739 4.89966 41.4739Z" fill="#22CBFF"/>
<path d="M13.3217 46.7567C12.2172 46.2006 10.8365 52.3177 11.2507 54.6811C11.6649 57.0445 14.1501 60.9371 16.3592 62.1883C18.8443 63.5785 20.9153 62.8834 19.1205 58.0176C17.4637 53.1518 15.6688 48.147 13.3217 46.7567Z" fill="#FFD0CA"/>
<path d="M13.5978 46.2008C13.5978 46.2008 11.3888 46.6179 10.6985 50.0935C10.0081 53.569 10.4223 53.8471 10.9746 55.2373C11.2507 55.7934 12.2172 57.1836 12.2172 57.1836C12.2172 57.1836 14.7024 57.0446 15.945 56.2105C17.1875 55.2373 17.7398 54.2641 17.7398 54.2641C17.7398 54.2641 18.2921 50.5105 16.9114 48.5642C15.6688 46.6179 13.5978 46.2008 13.5978 46.2008Z" fill="#1BACD8"/>
<path d="M11.8028 56.6275L12.217 57.3227C12.217 57.3227 14.1499 57.6007 15.6686 56.6275C17.1873 55.6544 17.8776 54.5422 17.8776 54.5422L17.7396 53.569C17.7396 53.569 16.7731 55.3763 15.2544 56.0714C13.7357 56.7666 11.8028 56.6275 11.8028 56.6275Z" fill="white"/>
<path d="M16.9111 59.408C16.9111 59.408 17.3253 59.1299 19.6724 57.4616C21.3292 56.3495 25.3331 52.1788 25.3331 52.1788L25.4712 55.0983C25.4712 55.0983 24.0905 58.4348 22.7099 59.825C20.0866 62.6055 18.9821 62.6055 18.9821 62.6055L16.9111 59.408Z" fill="#FFD0CA"/>
<path opacity="0.6" d="M42.1462 10.0858L61.1992 21.2077V44.1465L42.1462 33.0246V10.0858Z" fill="url(#paint5_linear)"/>
<path opacity="0.5" d="M42.9748 11.7541L60.233 21.7638V23.293L42.9748 13.1443V11.7541Z" fill="url(#paint6_linear)"/>
<path opacity="0.5" d="M47.3929 17.7321V18.5663L42.9748 15.9248V15.0907L47.3929 17.7321Z" fill="url(#paint7_linear)"/>
<path opacity="0.5" d="M59.8184 41.3662V42.2003L55.4003 39.5589V38.7247L59.8184 41.3662Z" fill="url(#paint8_linear)"/>
<path opacity="0.5" d="M46.1503 18.9834V19.8175L42.9748 17.8712V17.037L46.1503 18.9834Z" fill="url(#paint9_linear)"/>
<path opacity="0.5" d="M45.1835 25.6564C45.3216 30.2442 48.221 35.11 51.5345 36.5002C54.9862 37.8905 57.6094 35.249 57.4713 30.8003C57.3333 26.2125 54.4339 21.3467 51.1203 19.9565C47.8068 18.5663 45.0455 21.0687 45.1835 25.6564Z" fill="url(#paint10_linear)"/>
<path opacity="0.6" d="M48.4972 27.1858C48.4972 29.1321 49.7397 31.2175 51.2585 31.7735C52.7772 32.3296 53.8817 31.2175 53.7436 29.2711C53.7436 27.3248 52.5011 25.2395 50.9823 24.6834C49.6017 24.1273 48.4972 25.2395 48.4972 27.1858Z" fill="white"/>
<path opacity="0.6" d="M64.3749 36.3612L104.828 59.8561V24.2661L64.3749 0.77124V36.3612Z" fill="url(#paint11_linear)"/>
<path opacity="0.6" d="M73.6252 38.4465L65.4793 33.7197V35.388L73.6252 40.1148V38.4465Z" fill="white"/>
<path opacity="0.6" d="M73.6252 35.2488L65.4793 30.522V32.1903L73.6252 36.917V35.2488Z" fill="white"/>
<path opacity="0.6" d="M73.6252 32.0514L65.4793 27.3246V28.8538L73.6252 33.5806V32.0514Z" fill="white"/>
<path opacity="0.6" d="M73.6252 28.8536L65.4793 24.1268V25.6561L73.6252 30.3829V28.8536Z" fill="white"/>
<path opacity="0.6" d="M73.6252 25.5173L65.4793 20.7905V22.3198L73.6252 27.0466V25.5173Z" fill="white"/>
<path opacity="0.6" d="M73.6252 22.3199L65.4793 17.5931V19.2614L73.6252 23.9881V22.3199Z" fill="white"/>
<path opacity="0.6" d="M73.6252 18.9833L65.4793 14.2565V15.9247L73.6252 20.6515V18.9833Z" fill="white"/>
<path opacity="0.6" d="M73.6252 15.7858L65.4793 11.059V12.7273L73.6252 17.4541V15.7858Z" fill="white"/>
<path opacity="0.5" d="M73.6252 8.27842L65.4793 3.55164V7.86135L73.6252 12.5881V8.27842Z" fill="url(#paint12_linear)"/>
<path opacity="0.5" d="M103.309 25.6562L95.1635 20.9294V25.2391L103.309 29.9659V25.6562Z" fill="url(#paint13_linear)"/>
<path opacity="0.5" d="M87.294 19.5392C86.6037 19.1221 86.1895 19.5392 86.1895 20.3733C86.1895 20.6513 86.1895 20.7904 86.3276 21.0684L82.3237 23.8489L74.4539 19.2611V20.0952L82.3237 24.683L86.6037 21.7635C86.8798 22.1806 87.156 22.4586 87.4321 22.7367C88.1224 23.1538 88.5366 22.7367 88.5366 21.9025C88.5366 20.9294 87.9843 19.9562 87.294 19.5392Z" fill="url(#paint14_linear)"/>
<path opacity="0.6" d="M100.134 29.827V34.1367L103.309 35.944V31.6343L100.134 29.827Z" fill="white"/>
<path opacity="0.6" d="M100.134 36.2219V40.5316L103.309 42.3389V38.0292L100.134 36.2219Z" fill="white"/>
<path opacity="0.6" d="M100.134 42.6171V46.9268L103.309 48.7341V44.5634L100.134 42.6171Z" fill="white"/>
<path opacity="0.6" d="M100.134 49.0122V53.3219L103.309 55.2682V50.9585L100.134 49.0122Z" fill="white"/>
<path opacity="0.5" d="M91.4355 18.7052L83.2896 13.9784V23.571L91.4355 28.2978V18.7052Z" fill="url(#paint15_linear)"/>
<path opacity="0.5" d="M92.126 35.666L83.9801 30.9392V40.5318L92.126 45.2586V35.666Z" fill="url(#paint16_linear)"/>
<path opacity="0.6" d="M88.1219 35.9439C88.1219 35.9439 87.9839 35.9439 88.1219 35.9439C87.8458 35.8049 87.7077 35.8049 87.4316 35.8049L83.4277 28.1586V28.0196L74.5915 22.8757V23.7099L83.0135 28.5757L87.0174 36.0829C86.8793 36.361 86.7413 36.639 86.7413 37.1951C86.7413 38.4463 87.4316 39.8366 88.3981 40.2536C89.2264 40.8097 90.0548 40.2536 90.0548 39.0024C89.6406 37.7512 88.9503 36.361 88.1219 35.9439Z" fill="white"/>
<path opacity="0.6" d="M87.2936 20.5125C87.0175 20.3734 86.8794 20.5125 86.8794 20.9295C86.8794 21.3466 87.1556 21.7637 87.2936 21.9027C87.5698 22.0417 87.7078 21.9027 87.7078 21.4856C87.8459 21.0686 87.5698 20.6515 87.2936 20.5125Z" fill="white"/>
<path opacity="0.6" d="M94.4733 29.4099C93.0926 28.7148 92.1262 29.4099 92.1262 31.2172C92.1262 33.0245 93.2307 34.9708 94.4733 35.805C95.7159 36.5001 96.8204 35.805 96.8204 33.9977C96.8204 32.1904 95.8539 30.244 94.4733 29.4099Z" fill="white"/>
<path opacity="0.5" d="M88.1222 37.0562C87.708 36.7781 87.4318 37.0562 87.4318 37.6123C87.4318 38.1683 87.708 38.7244 88.1222 39.0025C88.5363 39.2805 88.8125 39.0025 88.8125 38.4464C88.8125 37.8903 88.3983 37.3342 88.1222 37.0562Z" fill="url(#paint17_linear)"/>
<path opacity="0.5" d="M94.4732 30.7999C93.6449 30.3829 93.0926 30.7999 93.0926 31.9121C93.0926 33.0243 93.7829 34.1365 94.4732 34.5536C95.3016 34.9706 95.8539 34.5536 95.8539 33.4414C95.8539 32.4682 95.3016 31.217 94.4732 30.7999Z" fill="url(#paint18_linear)"/>
<g opacity="0.5">
<path opacity="0.5" d="M94.1973 35.5269V49.5682L82.1856 42.478V36.639L74.4539 32.7464V33.5805L81.4953 37.0561V42.8951L95.0257 50.9584V35.9439C95.0257 35.9439 94.8876 35.8049 94.6115 35.8049C94.3354 35.6659 94.1973 35.5269 94.1973 35.5269Z" fill="url(#paint19_linear)"/>
</g>
<path opacity="0.5" d="M81.6331 57.3538C81.6331 60.4123 83.4279 64.0269 85.775 65.2782C88.1221 66.6684 89.917 65.1391 89.917 62.0806C89.917 59.0221 88.1221 55.4075 85.775 54.1563C83.4279 52.9051 81.6331 54.2953 81.6331 57.3538Z" fill="url(#paint20_linear)"/>
<path opacity="0.5" d="M85.913 57.4928V48.7344L85.2226 48.3173V57.0758C84.3942 56.9368 83.7837 57.4944 83.842 58.605C83.9192 60.0785 84.6704 61.3855 85.6368 61.9416C86.6033 62.4977 87.4317 61.9416 87.4317 60.5514C87.4317 59.7172 86.7413 58.188 85.913 57.4928Z" fill="url(#paint21_linear)"/>
<path opacity="0.6" d="M108.556 70.0048L95.0255 62.0804V85.0193L108.556 92.9436V70.0048Z" fill="url(#paint22_linear)"/>
<path opacity="0.6" d="M107.451 70.6999L95.9916 64.0268V84.4632L107.451 91.1363V70.6999Z" fill="url(#paint23_linear)"/>
<path opacity="0.5" d="M105.104 70.839L98.339 66.8073V67.3634L105.104 71.3951V70.839Z" fill="url(#paint24_linear)"/>
<path opacity="0.5" d="M105.104 72.2292L98.339 68.1976V68.7537L105.104 72.7853V72.2292Z" fill="url(#paint25_linear)"/>
<path opacity="0.5" d="M97.3726 74.7315C97.3726 76.3997 98.339 78.207 99.5816 78.9021C100.824 79.5973 101.791 78.9021 101.791 77.2339C101.791 75.5656 100.824 73.7583 99.5816 73.0632C98.339 72.3681 97.3726 73.0632 97.3726 74.7315Z" fill="url(#paint26_linear)"/>
<path opacity="0.5" d="M102.757 83.629C102.757 84.6022 103.309 85.7144 103.999 86.1314C104.69 86.5485 105.242 86.1314 105.242 85.1583C105.242 84.1851 104.69 83.0729 103.999 82.6559C103.309 82.2388 102.757 82.6559 102.757 83.629Z" fill="url(#paint27_linear)"/>
<path opacity="0.5" d="M104.276 78.6241C104.276 79.3192 104.69 80.0143 105.104 80.2924C105.656 80.5704 105.932 80.2924 105.932 79.5973C105.932 78.9022 105.518 78.207 105.104 77.929C104.69 77.651 104.276 77.929 104.276 78.6241Z" fill="white"/>
<path opacity="0.5" d="M97.925 80.0143C97.925 80.2924 98.0631 80.7095 98.3392 80.8485C98.6153 80.9875 98.7534 80.8485 98.7534 80.5704C98.7534 80.2924 98.6153 79.8753 98.3392 79.7363C98.0631 79.5973 97.925 79.7363 97.925 80.0143Z" fill="white"/>
<path opacity="0.5" d="M99.4435 83.4901C99.4435 84.0462 99.7197 84.6023 100.134 84.8804C100.548 85.1584 100.824 84.8804 100.824 84.3243C100.824 83.7682 100.548 83.2121 100.134 82.934C99.7197 82.656 99.4435 82.934 99.4435 83.4901Z" fill="white"/>
<path opacity="0.5" d="M104.69 75.0096C104.69 75.2877 104.828 75.7047 105.104 75.8437C105.38 75.9828 105.518 75.8437 105.518 75.5657C105.518 75.2877 105.38 74.8706 105.104 74.7316C104.828 74.4535 104.69 74.5925 104.69 75.0096Z" fill="white"/>
<path opacity="0.5" d="M101.653 73.0631C101.653 73.3411 101.791 73.7582 102.067 73.8972C102.343 74.0362 102.481 73.8972 102.481 73.6192C102.481 73.3411 102.343 72.924 102.067 72.785C101.791 72.646 101.653 72.785 101.653 73.0631Z" fill="white"/>
<path opacity="0.5" d="M101.928 94.4729V102.675L89.5022 95.4461V87.2437L101.928 94.4729Z" fill="url(#paint28_linear)"/>
<path opacity="0.6" d="M91.5737 86.4094V91.8313L83.4278 87.1045V81.6826L91.5737 86.4094Z" fill="url(#paint29_linear)"/>
<path d="M49.3563 74.6702L43.6956 73.9751C43.6956 73.9751 42.8672 77.5897 44.2478 81.2043C45.4904 84.9579 47.8376 84.9579 48.6659 84.6799C49.4943 84.4018 49.9085 82.0384 49.7705 79.397C49.6324 76.7556 49.3563 74.6702 49.3563 74.6702Z" fill="url(#paint30_linear)"/>
<path d="M69.2375 86.2092L63.991 83.2897C62.6103 82.4556 62.1961 83.4287 61.6439 84.4019L57.0877 93.1604C56.5354 94.1335 56.1212 94.8286 57.2258 95.6628L62.1961 98.5823C63.0245 99.1384 63.5768 99.1384 64.129 98.1652L68.9613 88.9897C69.5136 87.8775 70.342 86.9043 69.2375 86.2092Z" fill="url(#paint31_linear)"/>
<path d="M69.2375 86.2092L63.991 83.2897C62.6103 82.4556 62.1961 83.4287 61.6439 84.4019L57.0877 93.1604C56.5354 94.1335 56.1212 94.8286 57.2258 95.6628L62.1961 98.5823C63.0245 99.1384 63.5768 99.1384 64.129 98.1652L68.9613 88.9897C69.5136 87.8775 70.342 86.9043 69.2375 86.2092Z" fill="black" fill-opacity="0.1"/>
<path d="M68.8231 85.9314L63.5767 83.0119C62.196 82.1778 61.7818 83.151 61.2296 84.1241L56.6734 92.8826C56.1211 93.8558 55.7069 94.5509 56.8115 95.385L61.7818 98.3045C62.6102 98.8606 63.1625 98.8606 63.7147 97.8874L68.547 88.7119C69.0993 87.5997 69.9277 86.6265 68.8231 85.9314Z" fill="url(#paint32_linear)"/>
<path d="M57.0875 93.5776L63.3005 97.1922L68.685 86.9045L62.6102 83.2899L57.0875 93.5776Z" fill="white"/>
<path d="M58.8825 95.8021L60.2632 96.6363L60.5393 96.0802L59.1586 95.246L58.8825 95.8021Z" fill="white"/>
<path d="M57.0874 83.5677C57.0874 83.5677 59.5726 84.2628 61.3675 84.4018C63.1623 84.5409 63.9907 84.6799 63.9907 84.8189C63.9907 85.375 63.3004 85.375 63.0242 85.375C62.472 85.514 61.3675 85.375 61.3675 85.375C61.3675 85.375 61.5055 85.653 61.0913 86.2091C60.8152 86.6262 60.8152 86.9042 60.401 87.3213C59.1584 88.5725 55.2926 87.0433 55.2926 87.0433L57.0874 83.5677Z" fill="#FFD0CA"/>
<path d="M45.9043 70.4997C45.9043 70.4997 43.6953 68.9704 41.6243 70.3606C40.1056 71.3338 38.3107 74.2533 39.001 78.424C40.1055 85.7922 51.703 90.38 51.703 90.38L45.9043 70.4997Z" fill="#DAF2FB"/>
<path d="M53.6363 81.8997C53.6363 81.8997 57.7783 83.4289 58.6066 83.846C59.435 84.263 59.297 86.3484 58.6066 87.1825C57.9163 88.0167 53.2221 87.1825 53.2221 87.1825L53.6363 81.8997Z" fill="#DAF2FB"/>
<path d="M62.8862 141.263C62.0578 140.706 56.9494 142.236 56.9494 142.236L51.4268 144.043L51.841 148.214C51.841 148.214 53.7739 150.299 56.5352 148.492C58.192 147.38 61.3675 145.989 62.472 144.182C63.3004 143.07 63.7146 141.819 62.8862 141.263Z" fill="#282525"/>
<path d="M49.2181 133.06C48.3897 132.504 43.2813 134.033 43.2813 134.033L37.7587 135.84L38.1729 140.011C38.1729 140.011 40.1058 142.096 42.8671 140.289C44.5239 139.177 47.6994 137.787 48.8039 135.979C49.6323 134.867 49.9084 133.616 49.2181 133.06Z" fill="#282525"/>
<path d="M42.0389 94.6897C42.0389 94.6897 39.5537 97.1921 39.1395 102.475C39.0014 104.838 40.244 114.987 40.244 114.987C40.244 114.987 38.3111 120.27 37.7589 123.607C37.2066 127.638 37.3447 135.423 37.3447 135.423C37.6208 136.536 38.7253 137.509 40.9344 137.231C43.1434 137.092 44.6621 134.172 44.6621 134.172C44.6621 134.172 45.4905 127.638 46.1808 123.328C46.595 120.826 47.0092 119.297 47.2854 117.211C47.4234 114.848 47.5615 109.148 47.5615 109.148C47.5615 109.148 50.1847 119.853 51.0131 123.05C49.3563 128.472 50.8751 143.209 51.0131 144.46C54.3267 147.101 56.3977 144.599 57.6402 142.514C57.5022 139.177 58.0544 133.477 58.1925 128.889C58.3306 125.275 58.1925 123.746 58.3306 122.494C58.4686 120.131 57.3641 113.041 56.8119 107.619C56.1215 101.224 55.9835 96.636 55.9835 96.636L42.0389 94.6897Z" fill="url(#paint33_linear)"/>
<path d="M55.8448 78.5629C55.8448 82.1775 55.7068 86.9043 55.8448 88.8506C55.9829 92.3262 56.9494 99.6944 57.5016 102.475C56.3971 103.587 51.5648 106.646 47.5609 105.811C44.6615 105.255 40.2434 103.587 38.5867 100.807C38.5867 100.25 40.1054 95.3847 40.1054 91.7701C40.1054 87.0433 39.6912 82.3165 39.5531 78.7019C39.4151 76.1995 40.7957 72.7239 41.7622 71.7508C42.8667 70.6386 43.4189 70.3605 45.3519 70.7776C46.8706 70.9166 50.3222 72.8629 51.4267 73.419C54.3261 74.6702 55.8448 77.4507 55.8448 78.5629Z" fill="url(#paint34_linear)"/>
<path d="M44.3859 72.5851L44.9381 69.2485L49.6324 70.3607C49.6324 70.3607 49.0801 72.168 49.6324 73.6973C49.6324 73.6973 46.0427 73.4192 44.3859 72.5851Z" fill="#FCB9B4"/>
<path d="M43.2811 62.0192C44.2475 59.9339 47.8372 57.5705 51.2889 60.768C54.8786 64.1046 53.4979 70.9167 50.8747 71.4728C49.494 71.7508 46.8708 71.0557 45.0759 69.2484C43.005 67.1631 42.4527 63.6875 43.2811 62.0192Z" fill="#FFD0CA"/>
<path d="M53.774 60.4901C53.774 60.4901 53.636 62.0193 52.6695 62.9925C51.565 63.9657 49.6321 64.6608 49.6321 64.6608C49.6321 64.6608 49.6321 65.3559 49.7701 66.19C49.9082 67.0242 49.494 67.4412 49.494 67.4412C49.494 67.4412 48.3895 65.773 47.6991 67.1632C47.0088 68.5534 48.2514 69.2485 48.2514 69.2485C48.2514 69.2485 47.8372 70.2217 47.1469 70.9168C46.5946 71.4729 45.6282 72.029 45.6282 72.029C45.6282 72.029 44.7998 69.9437 43.5572 67.9973C42.1765 66.051 41.7623 64.5218 41.7623 63.6876C41.7623 62.5754 42.1765 60.6291 44.3856 59.656C46.4566 57.7096 48.8037 58.8218 49.494 59.0999C50.0463 59.3779 51.4269 59.656 52.5314 58.9608C52.3934 60.073 51.8411 60.9072 51.8411 60.9072C51.8411 60.9072 52.6695 60.7681 53.774 60.4901Z" fill="#282525"/>
<path d="M47.8371 71.751C49.632 71.751 50.8746 72.7241 51.4268 73.4192C51.4268 73.4192 48.5275 75.2265 46.5946 74.3924C45.6281 73.9753 43.9713 73.1412 43.6952 72.5851C43.1429 71.89 44.6616 70.3607 44.6616 70.3607C44.6616 70.3607 45.49 71.751 47.8371 71.751Z" fill="#DAF2FB"/>
<path d="M66.2001 92.4654C66.2001 92.4654 66.6143 91.7703 66.7524 91.0752C66.8905 90.6581 66.4763 90.102 66.0621 90.9362C65.6479 91.6313 64.6814 92.4654 64.6814 92.4654L62.8866 95.663C62.8866 95.663 64.9575 97.7483 66.8905 96.4971C68.9614 95.2459 67.7189 93.0215 67.4427 92.7435C67.0285 92.4654 66.2001 92.4654 66.2001 92.4654Z" fill="#FFD0CA"/>
<path d="M59.0208 88.4335C58.6066 85.6531 58.0543 83.5677 57.6401 80.9263C56.9498 76.8946 55.0169 75.0873 53.3601 74.8093C53.3601 74.8093 51.151 77.0336 51.013 80.2312C50.8749 83.5677 51.151 86.3482 53.084 89.5457C53.7743 90.6579 55.5691 93.2993 57.364 94.1335C59.0208 94.9676 63.5769 96.7749 64.5434 96.7749C65.924 95.9408 66.8905 93.8554 64.9576 91.6311C63.715 91.214 60.4014 88.9896 59.0208 88.4335Z" fill="#DAF2FB"/>
<defs>
<linearGradient id="paint0_linear" x1="22.0992" y1="61.129" x2="29.6846" y2="47.5836" gradientUnits="userSpaceOnUse">
<stop stop-color="#DEF1F7"/>
<stop offset="1" stop-color="#B7DDE9"/>
</linearGradient>
<linearGradient id="paint1_linear" x1="17.2228" y1="58.9619" x2="25.8918" y2="44.8747" gradientUnits="userSpaceOnUse">
<stop stop-color="#DEF1F7"/>
<stop offset="1" stop-color="#B7DDE9"/>
</linearGradient>
<linearGradient id="paint2_linear" x1="19.9319" y1="55.7108" x2="25.3501" y2="46.5" gradientUnits="userSpaceOnUse">
<stop stop-color="#DEF1F7"/>
<stop offset="1" stop-color="#B7DDE9"/>
</linearGradient>
<linearGradient id="paint3_linear" x1="3.67739" y1="82.26" x2="18.3064" y2="79.551" gradientUnits="userSpaceOnUse">
<stop stop-color="#DEF1F7"/>
<stop offset="1" stop-color="#B7DDE9"/>
</linearGradient>
<linearGradient id="paint4_linear" x1="8.55345" y1="47.0421" x2="9.63708" y2="69.2565" gradientUnits="userSpaceOnUse">
<stop offset="0.00518135" stop-color="#4ED5FF"/>
<stop offset="1" stop-color="#22ACD7"/>
</linearGradient>
<linearGradient id="paint5_linear" x1="42.1517" y1="27.1329" x2="61.2412" y2="27.1329" gradientUnits="userSpaceOnUse">
<stop offset="0.00518135" stop-color="#4ED5FF"/>
<stop offset="1" stop-color="#22ACD7"/>
</linearGradient>
<linearGradient id="paint6_linear" x1="42.9974" y1="17.5073" x2="60.2658" y2="17.5073" gradientUnits="userSpaceOnUse">
<stop stop-color="#1691D6"/>
<stop offset="1" stop-color="#1680BB"/>
</linearGradient>
<linearGradient id="paint7_linear" x1="42.9806" y1="16.8236" x2="47.4013" y2="16.8236" gradientUnits="userSpaceOnUse">
<stop stop-color="#1691D6"/>
<stop offset="1" stop-color="#1680BB"/>
</linearGradient>
<linearGradient id="paint8_linear" x1="55.406" y1="40.4576" x2="59.8268" y2="40.4576" gradientUnits="userSpaceOnUse">
<stop stop-color="#1691D6"/>
<stop offset="1" stop-color="#1680BB"/>
</linearGradient>
<linearGradient id="paint9_linear" x1="42.9789" y1="18.4234" x2="46.1563" y2="18.4234" gradientUnits="userSpaceOnUse">
<stop stop-color="#1691D6"/>
<stop offset="1" stop-color="#1680BB"/>
</linearGradient>
<linearGradient id="paint10_linear" x1="45.1946" y1="28.1983" x2="57.5" y2="28.1983" gradientUnits="userSpaceOnUse">
<stop stop-color="#1691D6"/>
<stop offset="1" stop-color="#1680BB"/>
</linearGradient>
<linearGradient id="paint11_linear" x1="64.3866" y1="30.3427" x2="104.917" y2="30.3427" gradientUnits="userSpaceOnUse">
<stop offset="0.00518135" stop-color="#4ED5FF"/>
<stop offset="1" stop-color="#22ACD7"/>
</linearGradient>
<linearGradient id="paint12_linear" x1="65.49" y1="8.05717" x2="73.6407" y2="8.05717" gradientUnits="userSpaceOnUse">
<stop stop-color="#1691D6"/>
<stop offset="1" stop-color="#1680BB"/>
</linearGradient>
<linearGradient id="paint13_linear" x1="95.1742" y1="25.4349" x2="103.325" y2="25.4349" gradientUnits="userSpaceOnUse">
<stop stop-color="#1691D6"/>
<stop offset="1" stop-color="#1680BB"/>
</linearGradient>
<linearGradient id="paint14_linear" x1="74.4724" y1="21.9644" x2="88.5634" y2="21.9644" gradientUnits="userSpaceOnUse">
<stop stop-color="#1691D6"/>
<stop offset="1" stop-color="#1680BB"/>
</linearGradient>
<linearGradient id="paint15_linear" x1="83.3003" y1="21.1179" x2="91.451" y2="21.1179" gradientUnits="userSpaceOnUse">
<stop stop-color="#1691D6"/>
<stop offset="1" stop-color="#1680BB"/>
</linearGradient>
<linearGradient id="paint16_linear" x1="83.9908" y1="38.0788" x2="92.1415" y2="38.0788" gradientUnits="userSpaceOnUse">
<stop stop-color="#1691D6"/>
<stop offset="1" stop-color="#1680BB"/>
</linearGradient>
<linearGradient id="paint17_linear" x1="87.4336" y1="38.0263" x2="88.8151" y2="38.0263" gradientUnits="userSpaceOnUse">
<stop stop-color="#1691D6"/>
<stop offset="1" stop-color="#1680BB"/>
</linearGradient>
<linearGradient id="paint18_linear" x1="93.0962" y1="32.671" x2="95.8591" y2="32.671" gradientUnits="userSpaceOnUse">
<stop stop-color="#1691D6"/>
<stop offset="1" stop-color="#1680BB"/>
</linearGradient>
<linearGradient id="paint19_linear" x1="74.4809" y1="41.8268" x2="95.0648" y2="41.8268" gradientUnits="userSpaceOnUse">
<stop stop-color="#1691D6"/>
<stop offset="1" stop-color="#1680BB"/>
</linearGradient>
<linearGradient id="paint20_linear" x1="81.6439" y1="59.7296" x2="89.9327" y2="59.7296" gradientUnits="userSpaceOnUse">
<stop stop-color="#1691D6"/>
<stop offset="1" stop-color="#1680BB"/>
</linearGradient>
<linearGradient id="paint21_linear" x1="83.8428" y1="55.2165" x2="87.4385" y2="55.2165" gradientUnits="userSpaceOnUse">
<stop stop-color="#1691D6"/>
<stop offset="1" stop-color="#1680BB"/>
</linearGradient>
<linearGradient id="paint22_linear" x1="95.0294" y1="77.5272" x2="108.586" y2="77.5272" gradientUnits="userSpaceOnUse">
<stop offset="0.00518135" stop-color="#4ED5FF"/>
<stop offset="1" stop-color="#22ACD7"/>
</linearGradient>
<linearGradient id="paint23_linear" x1="95.9949" y1="77.5949" x2="107.476" y2="77.5949" gradientUnits="userSpaceOnUse">
<stop offset="0.00518135" stop-color="#4ED5FF"/>
<stop offset="1" stop-color="#22ACD7"/>
</linearGradient>
<linearGradient id="paint24_linear" x1="98.3479" y1="69.0947" x2="105.117" y2="69.0947" gradientUnits="userSpaceOnUse">
<stop stop-color="#1691D6"/>
<stop offset="1" stop-color="#1680BB"/>
</linearGradient>
<linearGradient id="paint25_linear" x1="98.3479" y1="70.485" x2="105.117" y2="70.485" gradientUnits="userSpaceOnUse">
<stop stop-color="#1691D6"/>
<stop offset="1" stop-color="#1680BB"/>
</linearGradient>
<linearGradient id="paint26_linear" x1="97.3784" y1="75.9737" x2="101.799" y2="75.9737" gradientUnits="userSpaceOnUse">
<stop stop-color="#1691D6"/>
<stop offset="1" stop-color="#1680BB"/>
</linearGradient>
<linearGradient id="paint27_linear" x1="102.76" y1="84.3883" x2="105.247" y2="84.3883" gradientUnits="userSpaceOnUse">
<stop stop-color="#1691D6"/>
<stop offset="1" stop-color="#1680BB"/>
</linearGradient>
<linearGradient id="paint28_linear" x1="89.5184" y1="94.9378" x2="101.952" y2="94.9378" gradientUnits="userSpaceOnUse">
<stop stop-color="#1691D6"/>
<stop offset="1" stop-color="#1680BB"/>
</linearGradient>
<linearGradient id="paint29_linear" x1="83.4302" y1="86.7619" x2="91.5916" y2="86.7619" gradientUnits="userSpaceOnUse">
<stop offset="0.00518135" stop-color="#4ED5FF"/>
<stop offset="1" stop-color="#22ACD7"/>
</linearGradient>
<linearGradient id="paint30_linear" x1="49.746" y1="79.38" x2="43.5038" y2="79.38" gradientUnits="userSpaceOnUse">
<stop stop-color="#3A2BAA"/>
<stop offset="1" stop-color="#2F1784"/>
</linearGradient>
<linearGradient id="paint31_linear" x1="58.4003" y1="97.2143" x2="66.5276" y2="84.2108" gradientUnits="userSpaceOnUse">
<stop stop-color="#DEF1F7"/>
<stop offset="1" stop-color="#B7DDE9"/>
</linearGradient>
<linearGradient id="paint32_linear" x1="58.4003" y1="97.2146" x2="66.5276" y2="84.211" gradientUnits="userSpaceOnUse">
<stop stop-color="#DEF1F7"/>
<stop offset="1" stop-color="#B7DDE9"/>
</linearGradient>
<linearGradient id="paint33_linear" x1="58.3149" y1="120.073" x2="37.2893" y2="120.073" gradientUnits="userSpaceOnUse">
<stop stop-color="#1680BB"/>
<stop offset="1" stop-color="#066EA9"/>
</linearGradient>
<linearGradient id="paint34_linear" x1="38.3532" y1="99.3816" x2="51.8985" y2="78.7927" gradientUnits="userSpaceOnUse">
<stop stop-color="#DEF1F7"/>
<stop offset="1" stop-color="#B7DDE9"/>
</linearGradient>
</defs>
</svg>
