<svg width="126" height="150" viewBox="0 0 126 150" fill="none" xmlns="http://www.w3.org/2000/svg">
<path d="M103.387 124.657H89.1506C82.6691 121.771 74.4515 120.155 65.5395 120.271C57.2062 120.386 49.5673 122.002 43.3173 124.657H28.271C28.271 124.657 28.271 128.927 28.271 129.158C28.3867 140.814 45.2849 150.047 66.0024 149.816C86.6043 149.585 103.271 140.006 103.271 128.465L103.387 124.657Z" fill="url(#paint0_linear)"/>
<path d="M103.387 124.657H89.1506C82.6691 121.771 74.4515 120.155 65.5395 120.271C57.2062 120.386 49.5673 122.002 43.3173 124.657H28.271C28.271 124.657 28.271 128.927 28.271 129.158C28.3867 140.814 45.2849 150.047 66.0024 149.816C86.6043 149.585 103.271 140.006 103.271 128.465L103.387 124.657Z" fill="#013545" fill-opacity="0.1"/>
<path d="M65.5395 103.536C44.8219 103.767 28.1552 113.462 28.271 125.003C28.3867 136.659 45.2849 145.892 66.0025 145.661C86.7201 145.431 103.387 135.736 103.271 124.195C103.155 112.538 86.2571 103.305 65.5395 103.536Z" fill="url(#paint1_linear)"/>
<path d="M94.9376 116.347H83.9423C78.9654 114.154 72.5997 112.885 65.6552 113C59.1738 113.115 53.1552 114.385 48.4099 116.347H36.6043C36.6043 116.347 36.6043 123.733 36.6043 123.849C36.72 132.851 49.9145 140.122 66.0025 139.891C81.9747 139.66 94.9376 132.274 94.9376 123.272V116.347Z" fill="url(#paint2_linear)"/>
<path d="M94.9376 116.347H83.9423C78.9654 114.154 72.5997 112.885 65.6552 113C59.1738 113.115 53.1552 114.385 48.4099 116.347H36.6043C36.6043 116.347 36.6043 123.733 36.6043 123.849C36.72 132.851 49.9145 140.122 66.0025 139.891C81.9747 139.66 94.9376 132.274 94.9376 123.272V116.347Z" fill="#00455B" fill-opacity="0.2"/>
<path d="M65.6553 99.9584C49.5673 100.189 36.6043 107.576 36.7201 116.693C36.8358 125.695 50.0303 132.966 66.1182 132.735C82.2062 132.504 95.1691 125.118 95.0534 116.001C94.8219 106.999 81.7432 99.843 65.6553 99.9584Z" fill="url(#paint3_linear)"/>
<path d="M65.8867 105.037C55.7015 105.152 47.5997 109.884 47.5997 115.539C47.7154 121.194 55.933 125.811 66.1182 125.695C76.3034 125.58 84.4052 120.848 84.4052 115.193C84.2895 109.538 76.0719 104.921 65.8867 105.037Z" fill="url(#paint4_linear)"/>
<path opacity="0.6" d="M0.261719 29.7881L47.5997 115.654C47.7154 121.31 55.933 125.926 66.1182 125.811C76.3034 125.695 84.4052 120.963 84.4052 115.308L125.262 29.3265L0.261719 29.7881Z" fill="url(#paint5_linear)"/>
<circle cx="64.4894" cy="45.949" r="44.6675" fill="url(#paint6_linear)"/>
<path d="M73.0535 23.3788C70.9701 24.6483 69.234 26.2641 67.3822 27.7644C66.2248 28.6877 64.9516 29.611 63.5627 30.3035C62.1738 30.9959 60.4377 31.2268 59.0488 31.9192C57.4285 32.8425 56.3868 34.6891 55.4609 36.1895C54.5349 37.6898 55.4609 38.6131 55.4609 39.998C55.3451 40.8059 54.8822 41.96 54.9979 42.7679C55.2294 44.9607 55.8081 46.3457 57.6599 46.8073C59.1646 47.1536 60.9007 47.4998 62.7525 47.3844C64.4886 47.269 66.2248 47.0382 67.8451 47.7306C69.4655 48.4231 70.5072 49.6926 71.8961 50.7313C72.359 51.0776 72.822 51.4238 73.2849 51.6546C73.2849 51.6546 73.2849 51.6546 73.1692 51.6546C72.359 51.6546 71.5488 51.5392 70.8544 51.3084C70.2757 50.9622 69.697 50.8467 69.234 50.3851C68.5396 49.808 67.3822 50.1543 66.572 50.1543C64.9516 50.3851 63.7942 49.808 61.9424 50.6159C59.5118 51.6546 54.9979 54.5399 54.9979 57.5406C54.9979 58.5793 55.2294 59.3872 55.2294 60.4259C55.2294 60.7721 54.9979 62.6187 55.1137 63.0804C55.3451 64.0037 55.8081 64.5807 56.6183 65.1578C58.3544 66.3119 60.0905 66.1965 61.3637 68.1585C62.2896 69.5434 62.7525 70.3513 64.0257 71.39C65.4146 72.3133 65.9933 72.8904 66.2248 74.737C66.3405 75.5448 66.3405 76.3527 66.4562 77.1606C66.8035 78.6609 67.3822 80.0459 68.3081 81.3154C68.8868 82.2387 70.6229 84.6624 71.5488 85.124C73.2849 85.9319 73.6322 85.0086 75.484 83.6237C76.5257 82.8158 77.3359 81.3154 78.3775 80.3921C79.5349 79.3534 81.2711 78.4301 82.197 77.1606C82.7757 76.4681 82.8914 74.9678 83.4701 74.2753C86.2479 70.813 87.0581 67.6968 87.6368 63.6574C87.8683 62.1571 87.5211 60.5413 87.5211 59.041C87.5211 56.8481 86.2479 55.8094 84.3961 55.117C82.66 54.4245 81.734 55.2324 80.1136 55.5786C79.6507 55.694 78.609 55.8094 78.1461 55.4632C77.2201 54.7707 76.2942 54.3091 75.484 54.3091C74.7896 54.3091 74.0951 54.3091 73.7479 53.9629C73.4007 53.5012 73.7479 52.6933 73.8637 52.2317C74.4424 52.5779 74.9053 53.2704 75.8312 53.0396C76.5257 52.9241 77.2201 53.5012 78.1461 53.155C81.1553 52.1163 83.4701 51.8854 87.984 52.5779C89.2572 52.8087 90.7618 50.7313 91.8035 50.0389C92.3822 49.6926 92.7294 49.1156 93.3081 49.0001C94.0025 48.7693 94.0025 49.6926 94.697 50.5005C95.1599 51.0776 96.5488 50.7313 96.8961 51.5392C97.4748 52.9241 99.3266 53.732 100.716 53.6166C101.641 53.5012 101.178 52.9241 101.063 52.4625C100.368 50.5005 98.9794 48.6539 99.5581 46.5765C100.137 44.6145 100.947 44.2683 102.567 44.6145C103.841 44.8453 102.799 46.8073 103.378 47.7306C103.725 48.3077 104.882 48.7693 105.229 48.3077C106.271 47.269 106.618 45.884 106.734 43.922C106.85 41.4984 107.776 39.421 108.354 37.1127C106.618 28.3415 102.22 20.4935 96.0859 14.3766C93.1924 14.4921 90.5303 18.4161 88.2155 19.5702C83.4701 21.9938 77.6831 20.4935 73.0535 23.3788Z" fill="url(#paint7_linear)"/>
<path d="M89.1506 71.1055C88.8034 72.0288 88.1089 73.1829 87.2988 74.2216C86.4886 75.1449 84.6367 75.722 84.2895 76.8761C83.9423 78.4919 84.058 80.223 85.2154 79.7614C86.0256 79.4151 87.4145 79.4151 88.2247 78.6073C89.1506 77.7994 89.1506 76.299 89.4978 75.6066C90.6552 73.8754 91.3497 71.5672 89.8451 69.9514C89.6136 69.6052 89.3821 70.6439 89.1506 71.1055Z" fill="url(#paint8_linear)"/>
<path d="M47.2802 80.1502C46.8173 79.4578 45.6599 79.2269 44.9654 78.8807C40.4515 77.2649 37.095 73.2255 34.896 69.0707C33.6228 66.7625 33.2756 64.8005 33.7386 62.146C33.8543 61.2227 34.0858 60.6457 34.0858 59.7224C33.97 57.9912 32.8126 56.7217 31.5395 55.6829C29.1089 53.8364 25.9839 53.3747 24.4793 50.374C23.4376 48.412 23.5534 45.6421 21.933 44.2572C21.3543 43.7955 20.5441 43.1031 19.9654 42.8723C19.8497 43.911 19.8497 44.9497 19.8497 45.9884C19.8497 61.7998 28.0673 75.6492 40.4515 83.6126C41.9562 83.4972 43.5765 83.0355 45.1969 81.9968C45.4284 81.5352 47.6274 80.7273 47.2802 80.1502Z" fill="url(#paint9_linear)"/>
<path d="M23.8728 41.7909C24.4515 42.2526 25.0302 41.4447 25.146 40.7522C25.4932 38.9056 25.7247 37.2899 25.609 35.2125C25.609 33.9429 24.9145 32.558 25.2617 31.2885C25.7247 29.4419 27.4608 28.2878 29.8914 28.2878C32.7849 28.2878 35.6784 29.4419 38.6877 29.0956C40.1923 28.8648 41.8127 28.4032 42.7386 27.1336C44.2432 24.9408 43.0858 21.8247 43.5488 19.4011C43.896 17.4391 44.4747 15.1308 46.0951 13.9767C47.3682 13.1688 48.8728 13.2842 50.8404 13.2842C52.3451 13.3997 52.4608 15.2462 52.6923 15.5925C53.6182 17.2082 54.0812 18.247 56.1645 18.5932C58.1321 18.9394 60.0997 18.3624 61.8358 17.6699C63.5719 17.0928 65.308 16.4004 67.0441 15.8233C68.433 15.3617 70.4006 15.0154 71.558 14.0921C73.0627 12.8226 72.1367 11.0914 73.1784 9.36025C74.2201 7.74449 75.0303 6.70578 74.1043 4.62837C73.6414 3.58967 72.8312 2.66637 72.021 1.85849C69.5904 1.51226 67.1599 1.28143 64.6136 1.28143C42.6228 1.28143 24.4515 16.9774 20.5164 37.7515C21.2108 39.2519 22.3682 40.6368 23.8728 41.7909Z" fill="url(#paint10_linear)"/>
<path d="M28.5025 49.2927C28.271 48.6002 28.271 48.0231 28.3867 47.2153C28.5025 46.869 28.5025 46.5228 28.5025 46.1766C28.5025 46.0612 28.3867 45.9457 28.3867 45.8303C28.271 45.4841 27.9238 45.0224 27.6923 44.6762C27.2293 44.0992 26.7664 43.1759 26.4191 43.9837C26.0719 44.4454 26.3034 44.907 26.4191 45.3687C26.6506 45.9457 26.7664 46.5228 26.7664 47.0999C26.7664 47.4461 26.6506 47.9077 26.8821 48.254C27.1136 48.9464 27.808 49.7543 28.6182 49.6389C28.7339 49.7543 28.6182 49.4081 28.5025 49.2927Z" fill="url(#paint11_linear)"/>
<path d="M29.4284 50.7931C29.3126 50.4468 29.1969 50.216 28.9654 50.3314C28.5024 50.5622 28.1552 50.7931 28.271 51.2547C28.3867 51.9472 29.3126 52.4088 29.8913 52.8705C30.3543 53.2167 30.2386 53.5629 30.3543 53.5629C30.933 53.2167 30.7015 52.178 30.2386 51.7164C30.0071 51.2547 29.6599 51.1393 29.4284 50.7931Z" fill="url(#paint12_linear)"/>
<path d="M40.0765 30.3652C39.2663 30.9422 38.3404 30.3652 37.4145 30.3652C36.72 30.3652 35.5626 30.596 35.3312 31.4039C35.0997 32.2118 35.9099 32.3272 36.4886 32.6734C37.7617 33.5967 38.6876 35.2125 39.9608 36.1358C40.5395 36.5974 41.3497 36.7128 41.9284 36.1358C42.2756 35.6741 42.1599 35.3279 42.2756 34.7508C42.3913 33.9429 42.6228 33.4813 42.8543 32.7888C43.2015 31.8655 43.0858 30.596 42.2756 29.9035C41.5812 29.5573 40.6552 29.7881 40.0765 30.3652Z" fill="url(#paint13_linear)"/>
<path opacity="0.2" d="M86.0256 57.3715C73.7571 78.7227 50.146 87.8402 33.0164 78.0302C20.6321 66.1428 13.6877 44.33 25.4932 23.5559C37.7617 2.20476 63.8034 -3.56582 83.2479 5.32087C95.2849 16.9775 96.9053 38.6748 86.0256 57.3715Z" fill="white"/>
<path opacity="0.1" d="M88.5073 25.8695C87.2342 26.562 85.1508 26.562 83.8777 25.8695C82.6045 25.177 82.6045 23.9075 83.8777 23.215C85.1508 22.5226 87.2342 22.5226 88.5073 23.215C89.7805 24.0229 89.7805 25.177 88.5073 25.8695Z" fill="black"/>
<path d="M86.8869 0.363537C85.8453 0.0173018 84.5721 0.132713 83.1832 0.940595C80.0582 2.67177 77.6277 7.05741 77.6277 10.6352C77.6277 15.4825 83.1832 20.9068 83.1832 20.9068L85.1508 21.9455L88.8545 1.40224L86.8869 0.363537Z" fill="#B0D6E1"/>
<path d="M85.1508 1.86391C88.2758 0.13273 90.7064 1.51767 90.7064 5.09543C90.7064 9.94272 85.1508 21.8301 85.1508 21.8301C85.1508 21.8301 79.5953 16.2904 79.5953 11.5585C79.5953 7.98073 82.0258 3.71049 85.1508 1.86391Z" fill="#B0D6E1"/>
<path d="M81.9101 10.1736C81.9101 12.251 83.4147 13.0588 85.1508 12.0201C87.0027 10.9814 88.3916 8.44238 88.3916 6.48038C88.3916 4.40297 86.887 3.59509 85.1508 4.63379C83.4147 5.55709 81.9101 8.09614 81.9101 10.1736Z" fill="white"/>
<path d="M79.711 11.6739C79.711 8.21152 82.1416 3.94129 85.2666 2.0947C87.9286 0.594348 90.1277 1.40223 90.7064 4.0567C90.2434 1.28682 87.9286 0.248113 85.1508 1.86388C82.0258 3.59505 79.5953 7.9807 79.5953 11.5585C79.5953 16.4057 85.1508 21.8301 85.1508 21.8301C84.4564 21.1376 79.711 16.1749 79.711 11.6739Z" fill="#C9F3FF"/>
<path opacity="0.1" d="M40.4199 27.0964C39.6097 27.558 38.3365 27.558 37.5263 27.0964C36.7162 26.6347 36.7162 25.9423 37.5263 25.4806C38.3365 25.019 39.6097 25.019 40.4199 25.4806C41.1143 25.9423 41.1143 26.6347 40.4199 27.0964Z" fill="black"/>
<path d="M39.9569 2.97535C38.9152 2.62912 37.6421 2.74453 36.2532 3.55241C33.1282 5.28359 30.6976 9.66923 30.6976 13.247C30.6976 18.0943 36.2532 23.5186 36.2532 23.5186L38.2208 24.5573L41.9245 4.01406L39.9569 2.97535Z" fill="#B0D6E1"/>
<path d="M38.2208 4.47572C41.3458 2.74455 43.7763 4.12949 43.7763 7.70725C43.7763 12.5545 38.2208 24.4419 38.2208 24.4419C38.2208 24.4419 32.6652 18.9022 32.6652 14.1703C32.6652 10.5925 35.0958 6.32231 38.2208 4.47572Z" fill="#B0D6E1"/>
<path d="M34.98 12.7854C34.98 14.8628 36.4847 15.6707 38.2208 14.632C40.0726 13.5933 41.4615 11.0542 41.4615 9.0922C41.4615 7.01479 39.9569 6.20691 38.2208 7.24561C36.3689 8.28432 34.98 10.708 34.98 12.7854Z" fill="white"/>
<path d="M32.781 14.4011C32.781 10.9388 35.2115 6.66852 38.3365 4.82193C40.9986 3.32158 43.1976 4.12946 43.7763 6.78393C43.3134 4.01405 40.9986 2.97535 38.2208 4.59111C35.0958 6.32229 32.6652 10.7079 32.6652 14.2857C32.6652 19.133 38.2208 24.5573 38.2208 24.5573C37.5263 23.7495 32.781 18.7867 32.781 14.4011Z" fill="#C9F3FF"/>
<path opacity="0.1" d="M73.5256 69.5875C72.2524 70.28 70.1691 70.28 68.8959 69.5875C67.6228 68.8951 67.6228 67.6255 68.8959 66.933C70.1691 66.2406 72.2524 66.2406 73.5256 66.933C74.683 67.6255 74.683 68.8951 73.5256 69.5875Z" fill="black"/>
<path d="M71.558 43.8507C70.5163 43.5045 69.2432 43.6199 67.8543 44.4278C64.7293 46.159 62.2987 50.5446 62.2987 54.1224C62.2987 58.9697 67.8543 64.394 67.8543 64.394L69.8219 65.4327L73.5256 44.8894L71.558 43.8507Z" fill="#B0D6E1"/>
<path d="M69.8219 45.4665C72.9469 43.7353 75.3774 45.1203 75.3774 48.698C75.3774 53.5453 69.8219 65.4327 69.8219 65.4327C69.8219 65.4327 64.2663 59.893 64.2663 55.1611C64.2663 51.4679 66.8126 47.1977 69.8219 45.4665Z" fill="#B0D6E1"/>
<path d="M66.5811 53.6607C66.5811 55.7381 68.0857 56.546 69.8219 55.5073C71.6737 54.4686 73.0626 51.9295 73.0626 49.9675C73.0626 47.8901 71.558 47.0822 69.8219 48.1209C68.0857 49.1596 66.5811 51.6987 66.5811 53.6607Z" fill="white"/>
<path d="M64.382 55.2765C64.382 51.8141 66.8126 47.5439 69.9376 45.6973C72.5996 44.197 74.7987 45.0049 75.3774 47.6593C74.9144 44.774 72.5996 43.8507 69.8219 45.4665C66.6969 47.1977 64.2663 51.5833 64.2663 55.1611C64.2663 60.0084 69.8219 65.4327 69.8219 65.4327C69.1274 64.6248 64.382 59.6621 64.382 55.2765Z" fill="#C9F3FF"/>
<defs>
<linearGradient id="paint0_linear" x1="103.447" y1="135.072" x2="28.2735" y2="135.072" gradientUnits="userSpaceOnUse">
<stop stop-color="#DEF1F7"/>
<stop offset="1" stop-color="#B7DDE9"/>
</linearGradient>
<linearGradient id="paint1_linear" x1="103.332" y1="124.641" x2="28.273" y2="124.641" gradientUnits="userSpaceOnUse">
<stop stop-color="#DEF1F7"/>
<stop offset="1" stop-color="#B7DDE9"/>
</linearGradient>
<linearGradient id="paint2_linear" x1="36.6212" y1="126.458" x2="95.0663" y2="126.458" gradientUnits="userSpaceOnUse">
<stop offset="0.00518135" stop-color="#22CBFF"/>
<stop offset="0.697917" stop-color="#39B0D5"/>
</linearGradient>
<linearGradient id="paint3_linear" x1="36.7362" y1="116.365" x2="95.1828" y2="116.365" gradientUnits="userSpaceOnUse">
<stop offset="0.00518135" stop-color="#22CBFF"/>
<stop offset="0.697917" stop-color="#39B0D5"/>
</linearGradient>
<linearGradient id="paint4_linear" x1="65.9964" y1="125.717" x2="65.9964" y2="105.075" gradientUnits="userSpaceOnUse">
<stop offset="0.00518135" stop-color="#C2DEED"/>
<stop offset="1" stop-color="white"/>
</linearGradient>
<linearGradient id="paint5_linear" x1="62.7637" y1="125.717" x2="62.7637" y2="29.3328" gradientUnits="userSpaceOnUse">
<stop offset="0.00518135" stop-color="#B0D6E1"/>
<stop offset="1" stop-color="#B0D6E1" stop-opacity="0"/>
</linearGradient>
<linearGradient id="paint6_linear" x1="19.8478" y1="45.9928" x2="109.354" y2="45.9928" gradientUnits="userSpaceOnUse">
<stop offset="0.00518135" stop-color="#22CBFF"/>
<stop offset="0.697917" stop-color="#39B0D5"/>
</linearGradient>
<linearGradient id="paint7_linear" x1="55.0493" y1="49.8011" x2="108.456" y2="49.8011" gradientUnits="userSpaceOnUse">
<stop stop-color="#1691D6"/>
<stop offset="1" stop-color="#1680BB"/>
</linearGradient>
<linearGradient id="paint8_linear" x1="84.1105" y1="74.8531" x2="90.7035" y2="74.8531" gradientUnits="userSpaceOnUse">
<stop stop-color="#1691D6"/>
<stop offset="1" stop-color="#1680BB"/>
</linearGradient>
<linearGradient id="paint9_linear" x1="19.7936" y1="63.4041" x2="47.2776" y2="63.4041" gradientUnits="userSpaceOnUse">
<stop stop-color="#1691D6"/>
<stop offset="1" stop-color="#1680BB"/>
</linearGradient>
<linearGradient id="paint10_linear" x1="20.4605" y1="21.5776" x2="74.4861" y2="21.5776" gradientUnits="userSpaceOnUse">
<stop stop-color="#1691D6"/>
<stop offset="1" stop-color="#1680BB"/>
</linearGradient>
<linearGradient id="paint11_linear" x1="26.2332" y1="46.6605" x2="28.6651" y2="46.6605" gradientUnits="userSpaceOnUse">
<stop stop-color="#1691D6"/>
<stop offset="1" stop-color="#1680BB"/>
</linearGradient>
<linearGradient id="paint12_linear" x1="28.246" y1="51.93" x2="30.6965" y2="51.93" gradientUnits="userSpaceOnUse">
<stop stop-color="#1691D6"/>
<stop offset="1" stop-color="#1680BB"/>
</linearGradient>
<linearGradient id="paint13_linear" x1="35.2826" y1="33.1292" x2="43.0355" y2="33.1292" gradientUnits="userSpaceOnUse">
<stop stop-color="#1691D6"/>
<stop offset="1" stop-color="#1680BB"/>
</linearGradient>
</defs>
</svg>
